<svg xmlns="http://www.w3.org/2000/svg" xmlns:xlink="http://www.w3.org/1999/xlink" width="500" zoomAndPan="magnify" viewBox="0 0 375 374.999991" height="500" preserveAspectRatio="xMidYMid meet" version="1.0"><defs><clipPath id="2ed880eb03"><path d="M 0 338.210938 L 150 338.210938 L 150 374.933594 L 0 374.933594 Z M 0 338.210938 " clip-rule="nonzero"/></clipPath><clipPath id="adaf393d7f"><path d="M 315.4375 111.550781 L 355.289062 111.550781 L 355.289062 149.992188 L 315.4375 149.992188 Z M 315.4375 111.550781 " clip-rule="nonzero"/></clipPath><clipPath id="4d5edb6be2"><path d="M 334.742188 103.144531 L 375 103.144531 L 375 141.75 L 334.742188 141.75 Z M 334.742188 103.144531 " clip-rule="nonzero"/></clipPath></defs><g clip-path="url(#2ed880eb03)"><path fill="#3c8a59" d="M 27.191406 374.113281 C 27.433594 374.109375 27.671875 374.09375 27.914062 374.0625 C 28.183594 374.027344 28.449219 373.976562 28.714844 373.910156 C 28.96875 373.84375 29.21875 373.761719 29.46875 373.667969 C 29.722656 373.5625 29.96875 373.445312 30.210938 373.316406 C 30.460938 373.164062 30.699219 373.003906 30.933594 372.832031 C 31.335938 372.527344 31.710938 372.199219 32.074219 371.851562 C 32.515625 371.417969 32.929688 370.964844 33.3125 370.484375 C 33.476562 370.265625 33.628906 370.046875 33.769531 369.816406 C 33.921875 369.546875 34.054688 369.269531 34.175781 368.984375 C 34.171875 368.984375 34.171875 368.988281 34.171875 368.992188 C 34.269531 368.746094 34.351562 368.5 34.425781 368.246094 C 34.554688 367.753906 34.644531 367.253906 34.714844 366.75 C 34.742188 366.527344 34.765625 366.308594 34.78125 366.085938 C 34.800781 365.835938 34.808594 365.585938 34.808594 365.332031 C 34.800781 364.679688 34.757812 364.03125 34.679688 363.386719 C 34.585938 362.6875 34.460938 361.996094 34.292969 361.308594 C 34.148438 360.78125 33.972656 360.265625 33.769531 359.753906 C 33.777344 359.769531 33.78125 359.789062 33.789062 359.804688 C 33.675781 359.542969 33.558594 359.28125 33.421875 359.027344 C 33.339844 358.882812 33.25 358.742188 33.15625 358.601562 C 32.976562 358.667969 32.800781 358.738281 32.625 358.808594 C 31.804688 359.140625 31.003906 359.511719 30.226562 359.941406 C 30.230469 359.9375 30.230469 359.9375 30.230469 359.9375 C 29.609375 360.289062 29.011719 360.671875 28.433594 361.09375 C 27.875 361.515625 27.34375 361.96875 26.835938 362.457031 C 26.363281 362.921875 25.921875 363.414062 25.511719 363.933594 C 25.085938 364.480469 24.699219 365.046875 24.347656 365.644531 C 24.066406 366.132812 23.816406 366.636719 23.59375 367.15625 C 23.59375 367.152344 23.59375 367.152344 23.597656 367.148438 C 23.59375 367.152344 23.59375 367.152344 23.59375 367.15625 C 23.589844 367.171875 23.582031 367.1875 23.574219 367.199219 C 23.582031 367.1875 23.585938 367.175781 23.589844 367.164062 C 23.460938 367.480469 23.34375 367.796875 23.253906 368.125 C 23.175781 368.425781 23.117188 368.726562 23.078125 369.03125 C 23.050781 369.246094 23.035156 369.460938 23.03125 369.675781 C 23.035156 369.890625 23.042969 370.101562 23.066406 370.3125 C 23.101562 370.566406 23.148438 370.816406 23.210938 371.066406 C 23.207031 371.046875 23.203125 371.03125 23.199219 371.011719 C 23.246094 371.179688 23.300781 371.34375 23.363281 371.507812 C 23.441406 371.695312 23.527344 371.878906 23.621094 372.058594 C 23.707031 372.203125 23.796875 372.34375 23.894531 372.480469 C 24 372.613281 24.105469 372.746094 24.21875 372.871094 C 24.335938 372.984375 24.457031 373.089844 24.582031 373.195312 C 24.753906 373.328125 24.933594 373.449219 25.117188 373.558594 C 25.308594 373.667969 25.503906 373.769531 25.710938 373.855469 C 25.832031 373.902344 25.953125 373.941406 26.078125 373.972656 C 26.261719 374.015625 26.441406 374.050781 26.621094 374.082031 C 26.8125 374.097656 27 374.109375 27.191406 374.113281 Z M 25.5625 374.714844 C 25.425781 374.671875 25.296875 374.613281 25.164062 374.550781 C 25.03125 374.488281 24.898438 374.421875 24.773438 374.351562 C 24.511719 374.199219 24.257812 374.039062 24.027344 373.847656 C 23.816406 373.671875 23.617188 373.492188 23.4375 373.285156 C 23.25 373.058594 23.074219 372.820312 22.925781 372.566406 C 22.648438 372.085938 22.449219 371.570312 22.320312 371.03125 C 22.195312 370.492188 22.15625 369.933594 22.183594 369.382812 C 22.195312 369.109375 22.234375 368.835938 22.28125 368.570312 C 22.328125 368.269531 22.402344 367.972656 22.488281 367.683594 C 22.574219 367.386719 22.6875 367.101562 22.804688 366.820312 C 22.941406 366.5 23.085938 366.183594 23.246094 365.875 C 24.4375 363.558594 26.230469 361.570312 28.367188 360.089844 C 29.355469 359.402344 30.421875 358.832031 31.523438 358.34375 C 31.867188 358.191406 32.214844 358.042969 32.566406 357.90625 C 32.359375 357.707031 32.144531 357.519531 31.921875 357.34375 C 31.625 357.117188 31.3125 356.910156 30.992188 356.714844 C 30.574219 356.476562 30.140625 356.261719 29.695312 356.074219 C 29.265625 355.902344 28.824219 355.75 28.375 355.621094 C 28.0625 355.542969 27.75 355.480469 27.433594 355.4375 C 26.917969 355.378906 26.40625 355.351562 25.890625 355.347656 C 25.359375 355.351562 24.835938 355.394531 24.3125 355.460938 C 24.328125 355.457031 24.347656 355.457031 24.367188 355.453125 C 23.789062 355.535156 23.21875 355.644531 22.652344 355.78125 C 21.613281 356.054688 20.597656 356.410156 19.601562 356.804688 C 18.089844 357.414062 16.621094 358.113281 15.195312 358.90625 C 14.480469 359.308594 13.78125 359.734375 13.097656 360.179688 C 12.324219 360.6875 11.574219 361.226562 10.832031 361.777344 C 10.847656 361.765625 10.863281 361.757812 10.878906 361.746094 C 10.113281 362.320312 9.355469 362.90625 8.617188 363.519531 C 7.863281 364.148438 7.136719 364.808594 6.433594 365.492188 C 6.433594 365.492188 6.433594 365.492188 6.433594 365.488281 C 5.804688 366.113281 5.195312 366.753906 4.609375 367.417969 C 4.023438 368.074219 3.453125 368.742188 2.902344 369.429688 C 2.667969 369.730469 2.4375 370.039062 2.21875 370.355469 C 2.003906 370.667969 1.800781 370.988281 1.605469 371.316406 C 1.539062 371.4375 1.472656 371.558594 1.40625 371.683594 C 1.328125 371.835938 1.261719 372 1.191406 372.160156 C 1.117188 372.347656 1.054688 372.535156 0.996094 372.726562 C 0.949219 372.914062 0.90625 373.105469 0.878906 373.296875 C 0.871094 373.363281 0.863281 373.429688 0.859375 373.5 C 1.054688 373.53125 1.214844 373.6875 1.226562 373.894531 C 1.242188 374.121094 1.058594 374.339844 0.824219 374.347656 C 0.710938 374.351562 0.601562 374.355469 0.492188 374.324219 C 0.300781 374.265625 0.152344 374.121094 0.0742188 373.9375 C -0.0195312 373.726562 -0.0078125 373.480469 0.0195312 373.257812 C 0.0507812 372.992188 0.105469 372.726562 0.179688 372.464844 C 0.269531 372.15625 0.386719 371.855469 0.519531 371.558594 C 0.65625 371.246094 0.824219 370.953125 1 370.664062 C 1.375 370.035156 1.804688 369.433594 2.261719 368.859375 C 2.695312 368.316406 3.144531 367.789062 3.601562 367.261719 C 4.09375 366.695312 4.601562 366.136719 5.125 365.59375 C 6.1875 364.496094 7.320312 363.464844 8.507812 362.5 C 9.644531 361.578125 10.824219 360.699219 12.03125 359.867188 C 13.066406 359.148438 14.140625 358.496094 15.25 357.898438 C 16.34375 357.308594 17.464844 356.769531 18.613281 356.285156 C 19.996094 355.703125 21.417969 355.175781 22.886719 354.847656 C 23.597656 354.683594 24.324219 354.574219 25.054688 354.519531 C 25.78125 354.464844 26.515625 354.480469 27.242188 354.554688 C 27.578125 354.589844 27.914062 354.636719 28.242188 354.707031 C 28.613281 354.785156 28.976562 354.902344 29.335938 355.023438 C 30.003906 355.246094 30.652344 355.542969 31.269531 355.886719 C 31.851562 356.210938 32.40625 356.601562 32.902344 357.046875 C 33.09375 357.214844 33.273438 357.394531 33.441406 357.582031 C 33.894531 357.421875 34.351562 357.277344 34.8125 357.144531 C 35.5625 356.933594 36.328125 356.773438 37.097656 356.660156 C 37.941406 356.535156 38.789062 356.460938 39.640625 356.398438 C 40.484375 356.335938 41.328125 356.292969 42.171875 356.238281 C 43.042969 356.179688 43.910156 356.085938 44.773438 355.976562 C 44.753906 355.980469 44.734375 355.984375 44.71875 355.984375 C 47.078125 355.679688 49.425781 355.253906 51.734375 354.664062 C 51.722656 354.667969 51.714844 354.667969 51.703125 354.671875 C 52.519531 354.457031 53.332031 354.226562 54.136719 353.96875 C 54.914062 353.714844 55.6875 353.4375 56.445312 353.136719 C 57.714844 352.617188 58.949219 352.03125 60.148438 351.363281 C 60.128906 351.375 60.113281 351.382812 60.097656 351.390625 C 60.679688 351.0625 61.253906 350.71875 61.8125 350.351562 C 62.339844 350.007812 62.851562 349.644531 63.359375 349.269531 C 64.519531 348.398438 65.621094 347.460938 66.6875 346.476562 C 67.664062 345.574219 68.613281 344.644531 69.5625 343.71875 C 70.472656 342.835938 71.390625 341.964844 72.390625 341.1875 C 73.335938 340.445312 74.351562 339.789062 75.421875 339.246094 C 76.328125 338.789062 77.300781 338.433594 78.308594 338.28125 C 79.09375 338.160156 79.917969 338.1875 80.664062 338.46875 C 81.28125 338.699219 81.820312 339.132812 82.132812 339.71875 C 82.214844 339.863281 82.265625 340.03125 82.304688 340.195312 C 82.351562 340.386719 82.375 340.582031 82.386719 340.777344 C 82.417969 341.195312 82.378906 341.617188 82.3125 342.027344 C 82.242188 342.476562 82.125 342.917969 81.96875 343.34375 C 81.878906 343.578125 81.78125 343.804688 81.667969 344.027344 C 81.507812 344.339844 81.300781 344.632812 81.09375 344.917969 C 80.738281 345.40625 80.335938 345.863281 79.921875 346.304688 C 79.515625 346.738281 79.082031 347.148438 78.644531 347.546875 C 77.785156 348.335938 76.886719 349.085938 75.972656 349.808594 C 74.949219 350.621094 73.898438 351.402344 72.859375 352.199219 C 71.257812 353.429688 69.671875 354.683594 68.210938 356.085938 C 68.167969 356.128906 68.125 356.175781 68.078125 356.214844 C 68.070312 356.226562 68.058594 356.234375 68.046875 356.246094 C 67.941406 356.351562 67.839844 356.453125 67.734375 356.5625 C 67.316406 356.988281 66.925781 357.441406 66.554688 357.910156 C 66.296875 358.246094 66.058594 358.59375 65.839844 358.957031 C 65.621094 359.339844 65.429688 359.734375 65.257812 360.136719 C 65.125 360.472656 65.007812 360.8125 64.910156 361.15625 C 64.84375 361.429688 64.789062 361.703125 64.746094 361.980469 C 64.726562 362.144531 64.714844 362.304688 64.710938 362.46875 C 64.710938 362.675781 64.726562 362.878906 64.746094 363.082031 C 64.765625 363.199219 64.785156 363.316406 64.808594 363.429688 C 64.835938 363.535156 64.871094 363.640625 64.910156 363.742188 C 64.941406 363.816406 64.976562 363.890625 65.015625 363.964844 C 65.078125 364.074219 65.148438 364.175781 65.21875 364.277344 C 65.308594 364.390625 65.398438 364.496094 65.496094 364.601562 C 65.71875 364.820312 65.957031 365.023438 66.199219 365.21875 C 66.433594 365.394531 66.664062 365.558594 66.914062 365.707031 C 67.210938 365.875 67.519531 366.023438 67.835938 366.15625 C 68.144531 366.28125 68.457031 366.386719 68.777344 366.476562 C 69.082031 366.554688 69.386719 366.617188 69.699219 366.660156 C 69.972656 366.6875 70.238281 366.703125 70.511719 366.707031 C 70.777344 366.703125 71.046875 366.683594 71.3125 366.65625 C 71.578125 366.617188 71.839844 366.566406 72.101562 366.503906 C 72.363281 366.433594 72.621094 366.351562 72.875 366.253906 C 73.207031 366.113281 73.527344 365.949219 73.847656 365.773438 C 74.308594 365.507812 74.75 365.222656 75.175781 364.90625 C 75.644531 364.550781 76.085938 364.164062 76.511719 363.757812 C 77.109375 363.167969 77.660156 362.539062 78.183594 361.878906 C 78.980469 360.847656 79.6875 359.757812 80.347656 358.640625 C 81.074219 357.394531 81.742188 356.117188 82.457031 354.867188 C 83.136719 353.679688 83.855469 352.519531 84.628906 351.390625 C 85.3125 350.394531 86.039062 349.421875 86.859375 348.53125 C 87.605469 347.722656 88.445312 347.003906 89.351562 346.378906 C 90.207031 345.785156 91.144531 345.332031 92.128906 345.007812 C 93.074219 344.691406 94.0625 344.511719 95.050781 344.410156 C 96.832031 344.226562 98.636719 344.429688 100.339844 344.964844 C 101.375 345.289062 102.371094 345.730469 103.367188 346.144531 C 103.363281 346.140625 103.355469 346.136719 103.347656 346.136719 C 104.300781 346.53125 105.253906 346.917969 106.25 347.191406 C 106.703125 347.308594 107.15625 347.40625 107.617188 347.476562 C 107.691406 347.484375 107.769531 347.492188 107.84375 347.507812 C 108.324219 347.570312 108.808594 347.597656 109.296875 347.601562 C 109.882812 347.601562 110.460938 347.558594 111.042969 347.488281 C 111.75 347.398438 112.445312 347.253906 113.136719 347.078125 C 113.128906 347.082031 113.121094 347.082031 113.113281 347.085938 C 113.65625 346.941406 114.195312 346.785156 114.726562 346.605469 C 115.316406 346.402344 115.898438 346.179688 116.480469 345.949219 C 116.46875 345.953125 116.453125 345.957031 116.441406 345.960938 C 117.609375 345.492188 118.757812 344.976562 119.894531 344.4375 C 121.023438 343.90625 122.148438 343.367188 123.269531 342.820312 C 123.828125 342.550781 124.382812 342.277344 124.945312 342.019531 C 125.503906 341.761719 126.070312 341.53125 126.644531 341.300781 C 128.015625 340.75 129.402344 340.242188 130.820312 339.824219 C 132.175781 339.425781 133.550781 339.078125 134.941406 338.816406 C 135.582031 338.695312 136.226562 338.597656 136.875 338.519531 C 137.539062 338.441406 138.210938 338.410156 138.878906 338.40625 C 140.214844 338.390625 141.554688 338.5 142.878906 338.667969 C 144.027344 338.8125 145.167969 339.011719 146.292969 339.273438 C 146.921875 339.417969 147.550781 339.585938 148.160156 339.792969 C 148.710938 339.980469 149.253906 340.207031 149.777344 340.460938 C 149.988281 340.558594 150.074219 340.828125 149.972656 341.03125 C 149.867188 341.246094 149.609375 341.328125 149.398438 341.226562 C 149.167969 341.117188 148.9375 341.011719 148.703125 340.914062 C 148.105469 340.671875 147.492188 340.46875 146.871094 340.296875 C 145.578125 339.957031 144.261719 339.71875 142.9375 339.539062 C 141.671875 339.375 140.394531 339.269531 139.117188 339.257812 C 139.136719 339.257812 139.152344 339.257812 139.171875 339.257812 C 138.378906 339.261719 137.589844 339.296875 136.800781 339.390625 C 135.402344 339.570312 134.019531 339.855469 132.652344 340.207031 C 132.660156 340.203125 132.671875 340.203125 132.679688 340.199219 C 131.714844 340.453125 130.757812 340.726562 129.808594 341.039062 C 128.847656 341.359375 127.902344 341.722656 126.960938 342.09375 C 126.980469 342.089844 126.996094 342.082031 127.011719 342.074219 C 126.441406 342.304688 125.875 342.539062 125.316406 342.792969 C 124.753906 343.050781 124.195312 343.324219 123.640625 343.59375 C 122.519531 344.136719 121.394531 344.679688 120.265625 345.210938 C 119.121094 345.753906 117.96875 346.269531 116.796875 346.742188 C 116.203125 346.984375 115.601562 347.207031 114.996094 347.417969 C 114.4375 347.613281 113.871094 347.773438 113.300781 347.921875 C 112.308594 348.171875 111.300781 348.351562 110.28125 348.425781 C 109.429688 348.484375 108.578125 348.464844 107.730469 348.355469 C 107.714844 348.355469 107.695312 348.351562 107.679688 348.347656 C 107.601562 348.339844 107.527344 348.328125 107.453125 348.316406 C 106.511719 348.175781 105.597656 347.921875 104.707031 347.597656 C 104.265625 347.4375 103.832031 347.261719 103.402344 347.085938 C 103.195312 347 102.988281 346.914062 102.78125 346.828125 C 102.679688 346.785156 102.574219 346.742188 102.472656 346.699219 C 102.414062 346.675781 102.355469 346.652344 102.296875 346.625 C 102.269531 346.617188 102.246094 346.601562 102.21875 346.59375 C 102.152344 346.566406 102.082031 346.535156 102.015625 346.507812 C 101.207031 346.175781 100.390625 345.855469 99.546875 345.625 C 99.007812 345.480469 98.460938 345.371094 97.90625 345.296875 C 97.425781 345.238281 96.941406 345.207031 96.457031 345.199219 C 95.886719 345.199219 95.320312 345.234375 94.757812 345.304688 C 94.773438 345.300781 94.792969 345.296875 94.8125 345.296875 C 94.234375 345.371094 93.660156 345.476562 93.097656 345.617188 C 92.632812 345.738281 92.179688 345.886719 91.734375 346.0625 C 91.351562 346.21875 90.984375 346.394531 90.625 346.589844 C 90.628906 346.589844 90.628906 346.589844 90.632812 346.589844 C 90.207031 346.832031 89.800781 347.101562 89.40625 347.390625 C 88.902344 347.773438 88.421875 348.183594 87.96875 348.621094 C 87.441406 349.144531 86.960938 349.699219 86.5 350.28125 C 85.375 351.726562 84.378906 353.273438 83.453125 354.851562 C 83.464844 354.835938 83.472656 354.820312 83.484375 354.804688 C 82.757812 356.046875 82.085938 357.320312 81.375 358.574219 C 80.664062 359.820312 79.902344 361.039062 79.027344 362.179688 C 78.183594 363.289062 77.246094 364.332031 76.167969 365.21875 C 75.644531 365.644531 75.09375 366.035156 74.511719 366.378906 C 73.953125 366.707031 73.382812 367 72.769531 367.203125 C 71.648438 367.570312 70.453125 367.648438 69.292969 367.464844 C 68.695312 367.375 68.105469 367.191406 67.542969 366.964844 C 66.953125 366.726562 66.386719 366.421875 65.875 366.042969 C 65.355469 365.660156 64.851562 365.234375 64.472656 364.707031 C 64.144531 364.253906 63.957031 363.726562 63.894531 363.167969 C 63.867188 362.902344 63.847656 362.636719 63.855469 362.371094 C 63.863281 362.070312 63.90625 361.769531 63.960938 361.476562 C 64.082031 360.84375 64.289062 360.238281 64.535156 359.644531 C 65.128906 358.222656 66.101562 357.011719 67.167969 355.917969 C 67.269531 355.808594 67.375 355.707031 67.484375 355.601562 C 67.484375 355.597656 67.488281 355.597656 67.488281 355.59375 C 67.5 355.585938 67.507812 355.574219 67.519531 355.566406 C 67.535156 355.550781 67.550781 355.535156 67.566406 355.523438 C 67.574219 355.511719 67.582031 355.503906 67.589844 355.496094 C 67.6875 355.402344 67.785156 355.308594 67.886719 355.214844 C 68.097656 355.011719 68.316406 354.816406 68.53125 354.621094 C 68.96875 354.226562 69.421875 353.84375 69.875 353.46875 C 70.855469 352.664062 71.855469 351.886719 72.863281 351.117188 C 73.910156 350.316406 74.972656 349.527344 75.996094 348.691406 C 76.960938 347.90625 77.910156 347.09375 78.804688 346.222656 C 79.328125 345.699219 79.828125 345.148438 80.289062 344.566406 C 80.484375 344.304688 80.667969 344.039062 80.839844 343.757812 C 80.921875 343.605469 80.996094 343.453125 81.066406 343.296875 C 81.171875 343.035156 81.257812 342.773438 81.335938 342.507812 C 81.398438 342.246094 81.453125 341.988281 81.492188 341.722656 C 81.519531 341.507812 81.535156 341.292969 81.539062 341.078125 C 81.539062 340.933594 81.53125 340.792969 81.519531 340.648438 C 81.507812 340.5625 81.492188 340.476562 81.472656 340.390625 C 81.453125 340.324219 81.433594 340.257812 81.410156 340.195312 C 81.390625 340.144531 81.367188 340.097656 81.34375 340.050781 C 81.316406 340.007812 81.285156 339.964844 81.253906 339.917969 C 81.207031 339.859375 81.15625 339.800781 81.101562 339.742188 C 81.046875 339.6875 80.988281 339.636719 80.929688 339.585938 C 80.847656 339.527344 80.769531 339.472656 80.683594 339.421875 C 80.601562 339.378906 80.523438 339.339844 80.4375 339.300781 C 80.328125 339.253906 80.214844 339.21875 80.097656 339.183594 C 79.972656 339.152344 79.84375 339.125 79.714844 339.105469 C 79.539062 339.085938 79.367188 339.074219 79.191406 339.070312 C 78.980469 339.074219 78.765625 339.085938 78.550781 339.109375 C 78.273438 339.148438 77.996094 339.203125 77.722656 339.273438 C 77.386719 339.363281 77.0625 339.472656 76.738281 339.597656 C 76.21875 339.804688 75.714844 340.050781 75.226562 340.320312 C 74.546875 340.707031 73.894531 341.132812 73.265625 341.597656 C 72.265625 342.347656 71.34375 343.183594 70.445312 344.054688 C 69.5 344.96875 68.566406 345.890625 67.609375 346.789062 C 66.558594 347.773438 65.480469 348.71875 64.34375 349.597656 C 63.132812 350.535156 61.855469 351.394531 60.515625 352.136719 C 59.449219 352.730469 58.351562 353.265625 57.226562 353.738281 C 56.0625 354.230469 54.867188 354.648438 53.65625 355.015625 C 52.3125 355.421875 50.945312 355.753906 49.570312 356.039062 C 48.171875 356.332031 46.761719 356.574219 45.34375 356.765625 C 44.746094 356.847656 44.148438 356.917969 43.546875 356.980469 C 42.867188 357.050781 42.1875 357.097656 41.507812 357.136719 C 40.234375 357.21875 38.964844 357.289062 37.695312 357.441406 C 36.960938 357.539062 36.230469 357.664062 35.507812 357.84375 C 35.527344 357.839844 35.542969 357.835938 35.5625 357.832031 C 35.03125 357.96875 34.507812 358.125 33.988281 358.300781 C 34.058594 358.410156 34.125 358.519531 34.183594 358.632812 C 34.480469 359.1875 34.707031 359.769531 34.90625 360.367188 C 35.121094 360.996094 35.257812 361.648438 35.378906 362.304688 C 35.601562 363.515625 35.707031 364.757812 35.648438 365.988281 C 35.621094 366.558594 35.535156 367.128906 35.433594 367.6875 C 35.371094 368.03125 35.285156 368.367188 35.1875 368.703125 C 35.105469 368.976562 34.996094 369.242188 34.882812 369.503906 C 34.433594 370.582031 33.648438 371.480469 32.835938 372.304688 C 32.355469 372.789062 31.832031 373.234375 31.28125 373.640625 C 30.695312 374.070312 30.042969 374.398438 29.351562 374.621094 C 28.710938 374.824219 28.042969 374.941406 27.371094 374.964844 C 27.304688 374.96875 27.234375 374.96875 27.167969 374.96875 C 26.625 374.96875 26.082031 374.882812 25.5625 374.714844 " fill-opacity="1" fill-rule="nonzero"/></g><path fill="#959595" d="M 325.0625 27.339844 C 318.59375 29.203125 317.300781 40.859375 319.027344 46.453125 C 321.183594 55.777344 329.804688 60.441406 337.996094 60.90625 C 352.226562 61.839844 365.164062 41.792969 353.519531 29.203125 C 348.347656 23.144531 334.117188 20.347656 327.648438 25.941406 " fill-opacity="1" fill-rule="nonzero"/><g clip-path="url(#adaf393d7f)"><path fill="#789171" d="M 352.804688 138.023438 C 357.792969 133.503906 353.828125 122.46875 349.820312 118.203125 C 343.78125 110.777344 333.988281 110.382812 326.425781 113.566406 C 313.234375 118.988281 310.433594 142.679688 326.425781 148.867188 C 333.738281 152.035156 347.746094 148.289062 351.09375 140.417969 " fill-opacity="1" fill-rule="nonzero"/></g><path fill="#3c8a59" d="M 330.042969 74.960938 C 328.179688 68.492188 316.523438 67.199219 310.929688 68.921875 C 301.605469 71.078125 296.945312 79.703125 296.480469 87.894531 C 295.546875 102.125 315.59375 115.058594 328.179688 103.417969 C 334.238281 98.242188 337.035156 84.015625 331.441406 77.546875 " fill-opacity="1" fill-rule="nonzero"/><path fill="#3c8a59" d="M 339.957031 30.203125 C 335.613281 35.886719 327.617188 38.285156 320.699219 37.9375 C 314.570312 37.628906 309.011719 33.960938 306.441406 28.382812 C 304.140625 23.398438 304.445312 17.476562 306.40625 12.445312 C 308.640625 6.714844 313.148438 2.890625 319.105469 1.503906 C 322.804688 0.644531 326.71875 0.816406 330.316406 2.03125 C 334.230469 3.355469 337.027344 6.203125 339.449219 9.429688 C 341.972656 12.800781 343.617188 16.882812 343.582031 21.128906 C 343.566406 23.257812 343.03125 26.246094 341.699219 27.960938 C 341.121094 28.707031 340.539062 29.457031 339.957031 30.203125 C 339.695312 30.539062 340.609375 30.488281 340.804688 30.242188 C 341.359375 29.523438 341.917969 28.808594 342.472656 28.089844 C 343.609375 26.632812 344.097656 24.355469 344.367188 22.578125 C 344.933594 18.828125 343.8125 14.894531 341.953125 11.652344 C 338.40625 5.460938 333.109375 1.113281 325.851562 0.484375 C 320.265625 0 314.164062 1.660156 310.066406 5.578125 C 306.320312 9.15625 304.296875 14.367188 303.960938 19.46875 C 303.417969 27.703125 308.050781 35.21875 316.023438 37.746094 C 320.257812 39.089844 325.058594 38.609375 329.273438 37.464844 C 333.691406 36.265625 337.992188 33.921875 340.804688 30.242188 C 341.0625 29.902344 340.148438 29.953125 339.957031 30.203125 " fill-opacity="1" fill-rule="nonzero"/><path fill="#3c8a59" d="M 307.578125 15.253906 C 310.015625 8.523438 317.667969 3.625 324.652344 3.101562 C 330.695312 2.652344 336.070312 6.433594 338.578125 11.746094 C 340.851562 16.570312 340.894531 22.527344 338.617188 27.351562 C 335.398438 34.164062 326.519531 37.636719 319.429688 35.699219 C 315.015625 34.492188 310.691406 30.855469 308.328125 26.996094 C 306.96875 24.777344 306.367188 22.195312 306.453125 19.609375 C 306.507812 18.019531 307.039062 16.71875 307.578125 15.253906 C 307.699219 14.929688 306.789062 15.039062 306.671875 15.359375 C 305.726562 17.921875 305.28125 20.214844 305.777344 22.976562 C 306.367188 26.253906 308.394531 29.113281 310.78125 31.347656 C 313.179688 33.59375 316.179688 35.476562 319.351562 36.34375 C 322.734375 37.269531 326.339844 36.796875 329.597656 35.660156 C 335.023438 33.761719 339.171875 29.742188 340.636719 24.160156 C 341.917969 19.265625 341.046875 13.816406 338.40625 9.523438 C 335.175781 4.265625 328.945312 1.769531 322.941406 2.789062 C 316.199219 3.9375 309.054688 8.78125 306.671875 15.359375 C 306.554688 15.6875 307.460938 15.574219 307.578125 15.253906 " fill-opacity="1" fill-rule="nonzero"/><g clip-path="url(#4d5edb6be2)"><path fill="#3c8a59" d="M 370.886719 133.234375 C 366.542969 138.917969 358.542969 141.316406 351.628906 140.96875 C 345.5 140.660156 339.941406 136.996094 337.367188 131.417969 C 335.070312 126.433594 335.375 120.507812 337.335938 115.476562 C 339.570312 109.746094 344.078125 105.921875 350.03125 104.539062 C 353.730469 103.675781 357.648438 103.847656 361.246094 105.0625 C 365.15625 106.386719 367.957031 109.234375 370.375 112.460938 C 372.902344 115.832031 374.546875 119.917969 374.511719 124.160156 C 374.496094 126.292969 373.960938 129.28125 372.628906 130.992188 C 372.046875 131.742188 371.46875 132.488281 370.886719 133.234375 C 370.625 133.574219 371.539062 133.519531 371.730469 133.273438 C 372.289062 132.558594 372.847656 131.839844 373.402344 131.125 C 374.539062 129.664062 375.027344 127.386719 375.296875 125.609375 C 375.859375 121.859375 374.738281 117.925781 372.882812 114.683594 C 369.335938 108.496094 364.035156 104.148438 356.78125 103.519531 C 351.191406 103.035156 345.09375 104.691406 340.996094 108.609375 C 337.25 112.1875 335.226562 117.398438 334.890625 122.503906 C 334.347656 130.734375 338.980469 138.25 346.953125 140.78125 C 351.183594 142.121094 355.988281 141.644531 360.203125 140.5 C 364.621094 139.296875 368.917969 136.953125 371.730469 133.273438 C 371.992188 132.933594 371.078125 132.988281 370.886719 133.234375 " fill-opacity="1" fill-rule="nonzero"/></g><path fill="#3c8a59" d="M 338.507812 118.289062 C 340.945312 111.558594 348.597656 106.65625 355.582031 106.136719 C 361.621094 105.683594 367 109.464844 369.503906 114.777344 C 371.777344 119.601562 371.824219 125.5625 369.546875 130.382812 C 366.328125 137.195312 357.449219 140.671875 350.359375 138.734375 C 345.945312 137.523438 341.621094 133.890625 339.253906 130.027344 C 337.898438 127.808594 337.296875 125.226562 337.382812 122.644531 C 337.4375 121.050781 337.964844 119.753906 338.507812 118.289062 C 338.625 117.960938 337.71875 118.074219 337.601562 118.390625 C 336.65625 120.953125 336.210938 123.246094 336.707031 126.007812 C 337.296875 129.285156 339.324219 132.144531 341.710938 134.378906 C 344.109375 136.625 347.109375 138.511719 350.28125 139.378906 C 353.660156 140.300781 357.265625 139.828125 360.527344 138.691406 C 365.953125 136.792969 370.101562 132.773438 371.5625 127.191406 C 372.847656 122.296875 371.972656 116.847656 369.335938 112.554688 C 366.105469 107.296875 359.875 104.800781 353.871094 105.824219 C 347.128906 106.96875 339.984375 111.8125 337.601562 118.390625 C 337.480469 118.71875 338.390625 118.605469 338.507812 118.289062 " fill-opacity="1" fill-rule="nonzero"/></svg>