<svg xmlns="http://www.w3.org/2000/svg" xmlns:xlink="http://www.w3.org/1999/xlink" width="500" zoomAndPan="magnify" viewBox="0 0 375 374.999991" height="500" preserveAspectRatio="xMidYMid meet" version="1.0"><defs><clipPath id="55c86bbc5e"><path d="M 160.058594 0.0507812 L 375 0.0507812 L 375 52.5 L 160.058594 52.5 Z M 160.058594 0.0507812 " clip-rule="nonzero"/></clipPath><clipPath id="09561f78a5"><path d="M 242 288.265625 L 278 288.265625 L 278 322 L 242 322 Z M 242 288.265625 " clip-rule="nonzero"/></clipPath><clipPath id="f0c09d741d"><path d="M 341 321 L 374.984375 321 L 374.984375 357 L 341 357 Z M 341 321 " clip-rule="nonzero"/></clipPath></defs><g clip-path="url(#55c86bbc5e)"><path fill="#3c8a59" d="M 199.019531 51.492188 C 199.367188 51.488281 199.710938 51.460938 200.054688 51.421875 C 200.441406 51.367188 200.820312 51.296875 201.203125 51.207031 C 201.570312 51.105469 201.925781 50.992188 202.28125 50.859375 C 202.644531 50.707031 202.996094 50.539062 203.34375 50.351562 C 203.703125 50.132812 204.046875 49.902344 204.382812 49.65625 C 204.957031 49.21875 205.496094 48.75 206.019531 48.25 C 206.648438 47.628906 207.238281 46.980469 207.792969 46.292969 C 208.023438 45.980469 208.246094 45.667969 208.445312 45.335938 C 208.664062 44.949219 208.851562 44.550781 209.027344 44.144531 C 209.023438 44.144531 209.023438 44.152344 209.019531 44.15625 C 209.160156 43.804688 209.28125 43.449219 209.386719 43.085938 C 209.574219 42.378906 209.699219 41.664062 209.800781 40.941406 C 209.839844 40.625 209.875 40.308594 209.898438 39.992188 C 209.921875 39.632812 209.933594 39.273438 209.9375 38.910156 C 209.925781 37.976562 209.859375 37.046875 209.75 36.121094 C 209.613281 35.121094 209.433594 34.128906 209.195312 33.148438 C 208.988281 32.390625 208.738281 31.648438 208.445312 30.917969 C 208.457031 30.941406 208.464844 30.96875 208.472656 30.992188 C 208.3125 30.613281 208.140625 30.242188 207.949219 29.878906 C 207.828125 29.667969 207.703125 29.464844 207.566406 29.265625 C 207.3125 29.363281 207.058594 29.460938 206.804688 29.5625 C 205.628906 30.042969 204.480469 30.574219 203.371094 31.183594 C 203.371094 31.183594 203.375 31.183594 203.375 31.183594 C 202.484375 31.683594 201.625 32.230469 200.800781 32.839844 C 200 33.441406 199.238281 34.09375 198.511719 34.789062 C 197.835938 35.457031 197.203125 36.160156 196.613281 36.90625 C 196.003906 37.6875 195.449219 38.503906 194.945312 39.355469 C 194.542969 40.058594 194.183594 40.78125 193.867188 41.523438 C 193.867188 41.519531 193.867188 41.519531 193.871094 41.515625 C 193.867188 41.519531 193.867188 41.519531 193.867188 41.523438 C 193.855469 41.546875 193.847656 41.566406 193.839844 41.589844 C 193.847656 41.570312 193.855469 41.550781 193.863281 41.535156 C 193.675781 41.988281 193.507812 42.441406 193.375 42.914062 C 193.265625 43.34375 193.183594 43.777344 193.125 44.214844 C 193.089844 44.519531 193.066406 44.828125 193.058594 45.136719 C 193.0625 45.441406 193.078125 45.746094 193.109375 46.046875 C 193.160156 46.414062 193.226562 46.769531 193.316406 47.128906 C 193.3125 47.101562 193.304688 47.078125 193.300781 47.050781 C 193.367188 47.289062 193.445312 47.527344 193.535156 47.761719 C 193.644531 48.03125 193.765625 48.292969 193.90625 48.550781 C 194.027344 48.757812 194.15625 48.957031 194.296875 49.152344 C 194.445312 49.34375 194.597656 49.535156 194.761719 49.710938 C 194.929688 49.875 195.105469 50.027344 195.285156 50.179688 C 195.527344 50.367188 195.78125 50.539062 196.046875 50.699219 C 196.324219 50.859375 196.605469 51 196.894531 51.121094 C 197.070312 51.1875 197.246094 51.246094 197.425781 51.292969 C 197.6875 51.355469 197.941406 51.40625 198.203125 51.445312 C 198.476562 51.472656 198.746094 51.488281 199.019531 51.492188 Z M 196.6875 52.355469 C 196.492188 52.292969 196.304688 52.207031 196.117188 52.121094 C 195.925781 52.03125 195.738281 51.9375 195.554688 51.832031 C 195.179688 51.617188 194.816406 51.386719 194.488281 51.113281 C 194.183594 50.863281 193.898438 50.605469 193.644531 50.304688 C 193.371094 49.984375 193.121094 49.644531 192.910156 49.277344 C 192.511719 48.589844 192.222656 47.851562 192.042969 47.078125 C 191.863281 46.304688 191.808594 45.503906 191.84375 44.710938 C 191.863281 44.324219 191.917969 43.933594 191.984375 43.550781 C 192.054688 43.117188 192.15625 42.695312 192.28125 42.277344 C 192.40625 41.859375 192.566406 41.449219 192.738281 41.042969 C 192.933594 40.585938 193.140625 40.132812 193.367188 39.6875 C 195.074219 36.371094 197.644531 33.519531 200.703125 31.398438 C 202.121094 30.414062 203.648438 29.597656 205.226562 28.898438 C 205.71875 28.675781 206.21875 28.46875 206.722656 28.273438 C 206.425781 27.988281 206.121094 27.71875 205.796875 27.464844 C 205.371094 27.140625 204.925781 26.84375 204.464844 26.566406 C 203.867188 26.21875 203.246094 25.914062 202.605469 25.644531 C 201.988281 25.394531 201.359375 25.179688 200.71875 25 C 200.269531 24.886719 199.824219 24.796875 199.363281 24.734375 C 198.628906 24.648438 197.894531 24.605469 197.15625 24.601562 C 196.398438 24.609375 195.648438 24.671875 194.894531 24.765625 C 194.917969 24.761719 194.945312 24.757812 194.972656 24.757812 C 194.144531 24.871094 193.328125 25.027344 192.515625 25.226562 C 191.027344 25.621094 189.574219 26.128906 188.144531 26.691406 C 185.980469 27.566406 183.871094 28.570312 181.828125 29.703125 C 180.804688 30.28125 179.804688 30.886719 178.824219 31.53125 C 177.71875 32.253906 176.644531 33.03125 175.582031 33.816406 C 175.601562 33.800781 175.625 33.785156 175.644531 33.769531 C 174.546875 34.59375 173.460938 35.433594 172.40625 36.3125 C 171.324219 37.214844 170.285156 38.160156 169.273438 39.140625 C 169.277344 39.140625 169.277344 39.140625 169.277344 39.136719 C 168.375 40.027344 167.503906 40.949219 166.660156 41.898438 C 165.824219 42.839844 165.003906 43.796875 164.21875 44.78125 C 163.882812 45.214844 163.546875 45.652344 163.238281 46.105469 C 162.929688 46.554688 162.640625 47.019531 162.359375 47.484375 C 162.261719 47.660156 162.164062 47.832031 162.074219 48.011719 C 161.960938 48.234375 161.863281 48.464844 161.765625 48.695312 C 161.660156 48.960938 161.566406 49.230469 161.484375 49.507812 C 161.417969 49.777344 161.359375 50.046875 161.316406 50.324219 C 161.304688 50.421875 161.292969 50.515625 161.289062 50.613281 C 161.570312 50.660156 161.796875 50.882812 161.816406 51.179688 C 161.835938 51.507812 161.574219 51.820312 161.238281 51.828125 C 161.078125 51.835938 160.921875 51.839844 160.765625 51.792969 C 160.488281 51.714844 160.273438 51.503906 160.160156 51.242188 C 160.027344 50.941406 160.046875 50.585938 160.085938 50.269531 C 160.132812 49.882812 160.210938 49.503906 160.316406 49.132812 C 160.445312 48.6875 160.613281 48.257812 160.800781 47.835938 C 161 47.386719 161.238281 46.96875 161.488281 46.546875 C 162.03125 45.648438 162.644531 44.785156 163.296875 43.96875 C 163.921875 43.1875 164.566406 42.429688 165.21875 41.679688 C 165.925781 40.863281 166.652344 40.0625 167.402344 39.289062 C 168.921875 37.710938 170.546875 36.234375 172.246094 34.855469 C 173.878906 33.53125 175.566406 32.273438 177.296875 31.078125 C 178.777344 30.054688 180.320312 29.113281 181.910156 28.257812 C 183.476562 27.410156 185.085938 26.640625 186.726562 25.949219 C 188.710938 25.113281 190.75 24.359375 192.855469 23.886719 C 193.875 23.65625 194.914062 23.5 195.957031 23.417969 C 197 23.339844 198.054688 23.363281 199.09375 23.46875 C 199.578125 23.515625 200.054688 23.589844 200.527344 23.6875 C 201.058594 23.796875 201.582031 23.964844 202.09375 24.136719 C 203.050781 24.460938 203.976562 24.886719 204.859375 25.378906 C 205.699219 25.84375 206.492188 26.398438 207.203125 27.039062 C 207.476562 27.28125 207.734375 27.535156 207.972656 27.804688 C 208.625 27.578125 209.28125 27.371094 209.941406 27.179688 C 211.015625 26.875 212.109375 26.648438 213.214844 26.484375 C 214.421875 26.304688 215.640625 26.203125 216.855469 26.113281 C 218.066406 26.023438 219.277344 25.960938 220.488281 25.878906 C 221.734375 25.796875 222.972656 25.664062 224.210938 25.507812 C 224.1875 25.511719 224.160156 25.515625 224.132812 25.515625 C 227.515625 25.082031 230.882812 24.46875 234.1875 23.625 C 234.171875 23.628906 234.15625 23.632812 234.140625 23.636719 C 235.3125 23.328125 236.480469 23 237.628906 22.628906 C 238.746094 22.265625 239.847656 21.867188 240.941406 21.433594 C 242.757812 20.695312 244.523438 19.851562 246.242188 18.898438 C 246.21875 18.910156 246.195312 18.921875 246.171875 18.933594 C 247.003906 18.464844 247.828125 17.972656 248.628906 17.445312 C 249.382812 16.953125 250.121094 16.429688 250.847656 15.894531 C 252.507812 14.648438 254.085938 13.300781 255.613281 11.894531 C 257.015625 10.601562 258.371094 9.269531 259.734375 7.941406 C 261.035156 6.675781 262.351562 5.429688 263.785156 4.3125 C 265.144531 3.253906 266.59375 2.308594 268.128906 1.535156 C 269.429688 0.878906 270.824219 0.367188 272.265625 0.148438 C 273.390625 -0.0234375 274.570312 0.015625 275.640625 0.417969 C 276.527344 0.746094 277.300781 1.371094 277.746094 2.210938 C 277.859375 2.417969 277.933594 2.660156 277.992188 2.890625 C 278.058594 3.167969 278.09375 3.445312 278.109375 3.726562 C 278.152344 4.324219 278.101562 4.929688 278.003906 5.515625 C 277.902344 6.160156 277.734375 6.792969 277.507812 7.40625 C 277.382812 7.742188 277.238281 8.066406 277.078125 8.382812 C 276.847656 8.832031 276.554688 9.25 276.257812 9.660156 C 275.746094 10.359375 275.167969 11.015625 274.578125 11.648438 C 273.996094 12.269531 273.375 12.855469 272.75 13.425781 C 271.515625 14.554688 270.230469 15.632812 268.917969 16.667969 C 267.449219 17.832031 265.945312 18.949219 264.457031 20.089844 C 262.164062 21.855469 259.890625 23.65625 257.800781 25.660156 C 257.738281 25.722656 257.675781 25.792969 257.605469 25.847656 C 257.59375 25.863281 257.578125 25.875 257.5625 25.890625 C 257.410156 26.042969 257.261719 26.191406 257.113281 26.34375 C 256.515625 26.957031 255.953125 27.601562 255.425781 28.277344 C 255.054688 28.757812 254.710938 29.253906 254.398438 29.777344 C 254.085938 30.324219 253.808594 30.886719 253.566406 31.46875 C 253.375 31.949219 253.207031 32.433594 253.070312 32.929688 C 252.972656 33.320312 252.890625 33.710938 252.832031 34.109375 C 252.804688 34.34375 252.785156 34.574219 252.777344 34.804688 C 252.78125 35.101562 252.800781 35.394531 252.835938 35.6875 C 252.859375 35.855469 252.886719 36.019531 252.921875 36.1875 C 252.960938 36.339844 253.007812 36.484375 253.0625 36.632812 C 253.113281 36.742188 253.164062 36.84375 253.21875 36.953125 C 253.308594 37.105469 253.40625 37.257812 253.511719 37.402344 C 253.636719 37.5625 253.769531 37.710938 253.90625 37.863281 C 254.226562 38.175781 254.566406 38.46875 254.917969 38.746094 C 255.246094 39 255.582031 39.234375 255.9375 39.449219 C 256.363281 39.6875 256.804688 39.902344 257.257812 40.09375 C 257.699219 40.273438 258.148438 40.421875 258.605469 40.554688 C 259.046875 40.664062 259.484375 40.753906 259.929688 40.8125 C 260.316406 40.855469 260.703125 40.875 261.09375 40.878906 C 261.476562 40.871094 261.859375 40.847656 262.238281 40.808594 C 262.621094 40.753906 262.996094 40.675781 263.367188 40.589844 C 263.746094 40.488281 264.113281 40.371094 264.476562 40.234375 C 264.957031 40.027344 265.417969 39.792969 265.875 39.542969 C 266.53125 39.164062 267.167969 38.753906 267.777344 38.300781 C 268.449219 37.789062 269.082031 37.238281 269.691406 36.65625 C 270.546875 35.808594 271.335938 34.90625 272.085938 33.960938 C 273.226562 32.484375 274.242188 30.925781 275.1875 29.320312 C 276.226562 27.535156 277.1875 25.707031 278.210938 23.914062 C 279.179688 22.214844 280.214844 20.550781 281.324219 18.9375 C 282.304688 17.507812 283.34375 16.113281 284.515625 14.839844 C 285.585938 13.679688 286.792969 12.648438 288.085938 11.753906 C 289.3125 10.90625 290.65625 10.253906 292.066406 9.785156 C 293.421875 9.335938 294.839844 9.074219 296.257812 8.929688 C 298.808594 8.667969 301.390625 8.960938 303.835938 9.726562 C 305.316406 10.191406 306.742188 10.824219 308.171875 11.417969 C 308.164062 11.414062 308.152344 11.410156 308.144531 11.40625 C 309.507812 11.972656 310.878906 12.523438 312.304688 12.914062 C 312.949219 13.085938 313.601562 13.226562 314.261719 13.324219 C 314.367188 13.339844 314.476562 13.347656 314.585938 13.371094 C 315.273438 13.460938 315.972656 13.5 316.667969 13.507812 C 317.503906 13.503906 318.339844 13.445312 319.167969 13.34375 C 320.183594 13.210938 321.179688 13.007812 322.171875 12.753906 C 322.160156 12.757812 322.148438 12.761719 322.136719 12.765625 C 322.917969 12.558594 323.6875 12.335938 324.449219 12.074219 C 325.292969 11.785156 326.128906 11.46875 326.957031 11.136719 C 326.941406 11.140625 326.925781 11.148438 326.90625 11.15625 C 328.578125 10.480469 330.222656 9.742188 331.855469 8.972656 C 333.472656 8.210938 335.082031 7.4375 336.691406 6.65625 C 337.488281 6.269531 338.285156 5.875 339.09375 5.507812 C 339.890625 5.140625 340.707031 4.804688 341.523438 4.476562 C 343.488281 3.6875 345.476562 2.960938 347.507812 2.363281 C 349.453125 1.789062 351.417969 1.292969 353.414062 0.917969 C 354.332031 0.746094 355.257812 0.601562 356.1875 0.492188 C 357.136719 0.378906 358.097656 0.335938 359.054688 0.328125 C 360.96875 0.308594 362.890625 0.464844 364.789062 0.703125 C 366.433594 0.910156 368.070312 1.195312 369.679688 1.570312 C 370.582031 1.777344 371.480469 2.019531 372.355469 2.316406 C 373.144531 2.585938 373.917969 2.90625 374.671875 3.269531 C 374.972656 3.414062 375.097656 3.796875 374.949219 4.09375 C 374.800781 4.394531 374.429688 4.515625 374.128906 4.371094 C 373.800781 4.214844 373.46875 4.0625 373.132812 3.921875 C 372.277344 3.574219 371.402344 3.285156 370.507812 3.039062 C 368.65625 2.550781 366.769531 2.207031 364.871094 1.953125 C 363.054688 1.714844 361.226562 1.566406 359.398438 1.550781 C 359.425781 1.550781 359.449219 1.550781 359.476562 1.550781 C 358.339844 1.554688 357.207031 1.605469 356.074219 1.738281 C 354.074219 1.996094 352.089844 2.40625 350.136719 2.910156 C 350.148438 2.90625 350.160156 2.902344 350.171875 2.898438 C 348.789062 3.257812 347.417969 3.652344 346.0625 4.105469 C 344.683594 4.558594 343.328125 5.078125 341.980469 5.613281 C 342.003906 5.605469 342.027344 5.597656 342.054688 5.585938 C 341.238281 5.914062 340.421875 6.25 339.621094 6.617188 C 338.816406 6.984375 338.019531 7.378906 337.222656 7.765625 C 335.613281 8.542969 334 9.320312 332.382812 10.082031 C 330.746094 10.855469 329.097656 11.597656 327.414062 12.273438 C 326.5625 12.617188 325.703125 12.941406 324.835938 13.242188 C 324.035156 13.519531 323.222656 13.753906 322.402344 13.960938 C 320.984375 14.324219 319.539062 14.582031 318.078125 14.6875 C 316.859375 14.773438 315.636719 14.742188 314.425781 14.585938 C 314.398438 14.582031 314.375 14.582031 314.347656 14.578125 C 314.242188 14.5625 314.132812 14.546875 314.023438 14.53125 C 312.679688 14.328125 311.367188 13.960938 310.089844 13.5 C 309.460938 13.269531 308.839844 13.019531 308.21875 12.765625 C 307.925781 12.640625 307.628906 12.519531 307.332031 12.394531 C 307.183594 12.335938 307.039062 12.273438 306.890625 12.210938 C 306.808594 12.175781 306.71875 12.144531 306.636719 12.105469 C 306.601562 12.09375 306.5625 12.074219 306.527344 12.058594 C 306.429688 12.019531 306.332031 11.980469 306.234375 11.9375 C 305.074219 11.460938 303.90625 11.003906 302.695312 10.671875 C 301.921875 10.464844 301.140625 10.3125 300.347656 10.203125 C 299.65625 10.121094 298.964844 10.074219 298.269531 10.0625 C 297.453125 10.0625 296.644531 10.113281 295.835938 10.210938 C 295.859375 10.207031 295.886719 10.203125 295.910156 10.203125 C 295.082031 10.308594 294.261719 10.457031 293.453125 10.660156 C 292.789062 10.835938 292.140625 11.046875 291.5 11.296875 C 290.957031 11.523438 290.429688 11.773438 289.914062 12.058594 C 289.917969 12.054688 289.921875 12.054688 289.925781 12.054688 C 289.316406 12.402344 288.730469 12.789062 288.167969 13.203125 C 287.445312 13.75 286.757812 14.339844 286.105469 14.96875 C 285.355469 15.714844 284.660156 16.511719 284.003906 17.34375 C 282.394531 19.414062 280.964844 21.632812 279.636719 23.894531 C 279.652344 23.871094 279.664062 23.847656 279.679688 23.824219 C 278.640625 25.605469 277.679688 27.433594 276.65625 29.226562 C 275.640625 31.015625 274.546875 32.761719 273.296875 34.394531 C 272.085938 35.980469 270.742188 37.480469 269.195312 38.746094 C 268.449219 39.359375 267.660156 39.921875 266.824219 40.410156 C 266.027344 40.878906 265.203125 41.300781 264.328125 41.589844 C 262.722656 42.117188 261.007812 42.226562 259.347656 41.96875 C 258.488281 41.835938 257.644531 41.574219 256.839844 41.25 C 255.992188 40.910156 255.183594 40.476562 254.449219 39.933594 C 253.707031 39.382812 252.984375 38.773438 252.441406 38.019531 C 251.96875 37.363281 251.703125 36.609375 251.613281 35.8125 C 251.570312 35.429688 251.546875 35.050781 251.554688 34.667969 C 251.566406 34.238281 251.625 33.808594 251.707031 33.386719 C 251.878906 32.480469 252.175781 31.609375 252.53125 30.761719 C 253.378906 28.726562 254.773438 26.988281 256.300781 25.421875 C 256.449219 25.265625 256.601562 25.117188 256.753906 24.96875 C 256.757812 24.964844 256.761719 24.960938 256.761719 24.957031 C 256.777344 24.945312 256.789062 24.929688 256.808594 24.917969 C 256.828125 24.894531 256.851562 24.875 256.871094 24.855469 C 256.882812 24.839844 256.894531 24.832031 256.90625 24.816406 C 257.046875 24.679688 257.1875 24.546875 257.328125 24.410156 C 257.636719 24.125 257.945312 23.84375 258.257812 23.5625 C 258.882812 22.996094 259.53125 22.453125 260.179688 21.914062 C 261.585938 20.761719 263.019531 19.648438 264.460938 18.542969 C 265.964844 17.394531 267.484375 16.265625 268.949219 15.066406 C 270.332031 13.9375 271.691406 12.777344 272.972656 11.53125 C 273.730469 10.78125 274.441406 9.992188 275.101562 9.15625 C 275.382812 8.78125 275.648438 8.398438 275.890625 8 C 276.007812 7.78125 276.117188 7.558594 276.214844 7.335938 C 276.367188 6.964844 276.492188 6.589844 276.601562 6.203125 C 276.695312 5.832031 276.773438 5.460938 276.828125 5.082031 C 276.867188 4.777344 276.890625 4.46875 276.894531 4.160156 C 276.894531 3.953125 276.882812 3.746094 276.863281 3.542969 C 276.847656 3.417969 276.824219 3.292969 276.796875 3.171875 C 276.769531 3.078125 276.742188 2.984375 276.707031 2.890625 C 276.679688 2.820312 276.648438 2.753906 276.613281 2.6875 C 276.574219 2.625 276.53125 2.558594 276.488281 2.496094 C 276.417969 2.410156 276.34375 2.324219 276.269531 2.242188 C 276.1875 2.167969 276.105469 2.09375 276.019531 2.019531 C 275.90625 1.9375 275.789062 1.859375 275.667969 1.785156 C 275.554688 1.722656 275.4375 1.664062 275.316406 1.609375 C 275.15625 1.546875 274.996094 1.492188 274.832031 1.445312 C 274.648438 1.398438 274.464844 1.363281 274.277344 1.332031 C 274.03125 1.304688 273.785156 1.285156 273.53125 1.28125 C 273.226562 1.285156 272.921875 1.304688 272.613281 1.335938 C 272.210938 1.394531 271.816406 1.472656 271.425781 1.570312 C 270.945312 1.703125 270.480469 1.855469 270.015625 2.035156 C 269.269531 2.335938 268.550781 2.683594 267.847656 3.070312 C 266.871094 3.625 265.9375 4.238281 265.039062 4.898438 C 263.609375 5.976562 262.285156 7.175781 261 8.421875 C 259.644531 9.730469 258.304688 11.050781 256.933594 12.34375 C 255.433594 13.753906 253.882812 15.105469 252.253906 16.363281 C 250.519531 17.710938 248.691406 18.9375 246.769531 20.003906 C 245.238281 20.855469 243.671875 21.621094 242.058594 22.300781 C 240.386719 23.003906 238.675781 23.601562 236.941406 24.125 C 235.015625 24.710938 233.058594 25.1875 231.089844 25.597656 C 229.082031 26.015625 227.058594 26.359375 225.03125 26.636719 C 224.171875 26.753906 223.316406 26.855469 222.453125 26.945312 C 221.484375 27.046875 220.507812 27.109375 219.535156 27.171875 C 217.710938 27.285156 215.886719 27.386719 214.074219 27.605469 C 213.019531 27.742188 211.972656 27.921875 210.9375 28.183594 C 210.960938 28.175781 210.988281 28.167969 211.015625 28.164062 C 210.253906 28.359375 209.503906 28.585938 208.761719 28.839844 C 208.859375 28.992188 208.953125 29.148438 209.039062 29.3125 C 209.460938 30.105469 209.789062 30.941406 210.078125 31.796875 C 210.382812 32.699219 210.578125 33.636719 210.753906 34.574219 C 211.070312 36.308594 211.21875 38.085938 211.140625 39.851562 C 211.101562 40.667969 210.976562 41.484375 210.828125 42.285156 C 210.742188 42.777344 210.617188 43.261719 210.476562 43.742188 C 210.359375 44.132812 210.199219 44.511719 210.042969 44.890625 C 209.398438 46.433594 208.273438 47.722656 207.109375 48.898438 C 206.417969 49.597656 205.671875 50.234375 204.882812 50.8125 C 204.042969 51.429688 203.105469 51.898438 202.117188 52.21875 C 201.195312 52.515625 200.238281 52.675781 199.273438 52.714844 C 199.179688 52.71875 199.082031 52.722656 198.984375 52.722656 C 198.207031 52.722656 197.433594 52.59375 196.6875 52.355469 " fill-opacity="1" fill-rule="nonzero"/></g><path fill="#7ca494" d="M 200.132812 362.390625 C 199.757812 361.085938 197.410156 360.828125 196.28125 361.175781 C 194.402344 361.609375 193.460938 363.347656 193.367188 365 C 193.179688 367.867188 197.21875 370.472656 199.757812 368.128906 C 200.980469 367.085938 201.542969 364.214844 200.414062 362.914062 " fill-opacity="1" fill-rule="nonzero"/><path fill="#3c8a59" d="M 203.394531 341.222656 C 207.320312 345.558594 216.910156 342.113281 220.617188 338.628906 C 227.070312 333.382812 227.414062 324.875 224.644531 318.300781 C 219.933594 306.839844 199.347656 304.40625 193.976562 318.300781 C 191.222656 324.65625 194.476562 336.832031 201.316406 339.738281 " fill-opacity="1" fill-rule="nonzero"/><path fill="#adbcb3" d="M 214.988281 352.617188 C 210.050781 348.847656 207.96875 341.894531 208.269531 335.882812 C 208.539062 330.5625 211.722656 325.730469 216.570312 323.496094 C 220.902344 321.496094 226.046875 321.761719 230.421875 323.464844 C 235.398438 325.40625 238.722656 329.328125 239.925781 334.496094 C 240.671875 337.710938 240.527344 341.117188 239.46875 344.242188 C 238.316406 347.640625 235.84375 350.074219 233.042969 352.175781 C 230.109375 354.371094 226.5625 355.800781 222.875 355.769531 C 221.023438 355.757812 218.425781 355.292969 216.9375 354.132812 C 216.289062 353.628906 215.640625 353.125 214.988281 352.617188 C 214.695312 352.394531 214.738281 353.1875 214.953125 353.355469 L 216.824219 354.808594 C 218.09375 355.792969 220.070312 356.214844 221.617188 356.453125 C 224.871094 356.941406 228.292969 355.96875 231.109375 354.355469 C 236.488281 351.269531 240.265625 346.664062 240.8125 340.363281 C 241.234375 335.507812 239.792969 330.207031 236.386719 326.644531 C 233.277344 323.390625 228.75 321.632812 224.316406 321.339844 C 217.164062 320.867188 210.632812 324.894531 208.433594 331.820312 C 207.265625 335.503906 207.683594 339.675781 208.679688 343.335938 C 209.722656 347.175781 211.757812 350.910156 214.953125 353.355469 C 215.25 353.578125 215.207031 352.785156 214.988281 352.617188 " fill-opacity="1" fill-rule="nonzero"/><path fill="#adbcb3" d="M 227.976562 324.484375 C 233.824219 326.605469 238.085938 333.253906 238.535156 339.316406 C 238.929688 344.570312 235.644531 349.238281 231.027344 351.421875 C 226.835938 353.394531 221.65625 353.433594 217.46875 351.453125 C 211.546875 348.65625 208.527344 340.941406 210.214844 334.78125 C 211.261719 330.949219 214.421875 327.191406 217.777344 325.132812 C 219.703125 323.953125 221.949219 323.429688 224.195312 323.507812 C 225.574219 323.554688 226.707031 324.011719 227.976562 324.484375 C 228.261719 324.589844 228.164062 323.796875 227.890625 323.695312 C 225.660156 322.875 223.667969 322.488281 221.269531 322.917969 C 218.421875 323.429688 215.9375 325.191406 213.996094 327.265625 C 212.042969 329.351562 210.40625 331.960938 209.652344 334.714844 C 208.847656 337.652344 209.261719 340.785156 210.25 343.617188 C 211.898438 348.328125 215.390625 351.9375 220.242188 353.207031 C 224.492188 354.324219 229.230469 353.566406 232.957031 351.269531 C 237.527344 348.464844 239.699219 343.050781 238.808594 337.832031 C 237.816406 331.972656 233.605469 325.765625 227.890625 323.695312 C 227.601562 323.59375 227.699219 324.382812 227.976562 324.484375 " fill-opacity="1" fill-rule="nonzero"/><path fill="#7ca494" d="M 305.386719 343.265625 C 303.769531 337.648438 293.640625 336.523438 288.777344 338.023438 C 280.675781 339.894531 276.628906 347.390625 276.21875 354.507812 C 275.410156 366.871094 292.832031 378.109375 303.769531 367.996094 C 309.035156 363.496094 311.464844 351.132812 306.605469 345.515625 " fill-opacity="1" fill-rule="nonzero"/><path fill="#7ca494" d="M 257.164062 342.730469 C 256.789062 341.425781 254.441406 341.167969 253.3125 341.511719 C 251.433594 341.945312 250.492188 343.6875 250.398438 345.335938 C 250.207031 348.207031 254.25 350.8125 256.789062 348.46875 C 258.007812 347.421875 258.574219 344.554688 257.445312 343.253906 " fill-opacity="1" fill-rule="nonzero"/><path fill="#7ca494" d="M 303.851562 302.140625 C 303.476562 300.835938 301.128906 300.574219 300 300.925781 C 298.121094 301.359375 297.179688 303.097656 297.085938 304.746094 C 296.902344 307.617188 300.9375 310.222656 303.476562 307.875 C 304.699219 306.832031 305.265625 303.964844 304.136719 302.664062 " fill-opacity="1" fill-rule="nonzero"/><path fill="#7ca494" d="M 333.613281 362.390625 C 333.242188 361.085938 330.890625 360.828125 329.761719 361.175781 C 327.882812 361.609375 326.941406 363.347656 326.847656 365 C 326.664062 367.867188 330.699219 370.472656 333.242188 368.128906 C 334.460938 367.085938 335.023438 364.214844 333.898438 362.914062 " fill-opacity="1" fill-rule="nonzero"/><path fill="#3c8a59" d="M 337.238281 341.222656 C 341.167969 345.558594 350.757812 342.113281 354.464844 338.628906 C 360.917969 333.382812 361.257812 324.875 358.492188 318.300781 C 353.78125 306.839844 333.195312 304.40625 327.820312 318.300781 C 325.066406 324.65625 328.328125 336.832031 335.160156 339.738281 " fill-opacity="1" fill-rule="nonzero"/><g clip-path="url(#09561f78a5)"><path fill="#adbcb3" d="M 271.410156 317.460938 C 277.027344 315.839844 278.152344 305.710938 276.652344 300.851562 C 274.78125 292.75 267.289062 288.699219 260.167969 288.292969 C 247.800781 287.484375 236.5625 304.902344 246.679688 315.839844 C 251.175781 321.105469 263.542969 323.535156 269.160156 318.675781 " fill-opacity="1" fill-rule="nonzero"/></g><path fill="#adbcb3" d="M 295.621094 353.574219 C 290.683594 349.796875 288.597656 342.847656 288.898438 336.839844 C 289.167969 331.511719 292.355469 326.679688 297.199219 324.445312 C 301.53125 322.449219 306.675781 322.714844 311.050781 324.417969 C 316.027344 326.359375 319.351562 330.277344 320.558594 335.453125 C 321.304688 338.667969 321.152344 342.070312 320.097656 345.191406 C 318.949219 348.59375 316.472656 351.027344 313.671875 353.128906 C 310.742188 355.324219 307.195312 356.75 303.503906 356.722656 C 301.652344 356.707031 299.058594 356.246094 297.566406 355.085938 C 296.914062 354.582031 296.269531 354.078125 295.621094 353.574219 C 295.324219 353.34375 295.367188 354.140625 295.582031 354.308594 C 296.207031 354.789062 296.832031 355.277344 297.453125 355.757812 C 298.722656 356.742188 300.699219 357.167969 302.246094 357.402344 C 305.5 357.894531 308.921875 356.917969 311.738281 355.304688 C 317.117188 352.226562 320.894531 347.621094 321.441406 341.316406 C 321.859375 336.460938 320.417969 331.160156 317.015625 327.597656 C 313.90625 324.34375 309.378906 322.585938 304.945312 322.292969 C 297.789062 321.820312 291.261719 325.847656 289.0625 332.773438 C 287.898438 336.453125 288.3125 340.625 289.308594 344.289062 C 290.351562 348.125 292.386719 351.859375 295.582031 354.308594 C 295.878906 354.535156 295.835938 353.738281 295.621094 353.574219 " fill-opacity="1" fill-rule="nonzero"/><path fill="#adbcb3" d="M 308.605469 325.433594 C 314.453125 327.554688 318.714844 334.203125 319.164062 340.273438 C 319.558594 345.523438 316.273438 350.195312 311.65625 352.371094 C 307.464844 354.347656 302.285156 354.382812 298.09375 352.40625 C 292.175781 349.609375 289.160156 341.894531 290.84375 335.734375 C 291.890625 331.902344 295.050781 328.144531 298.40625 326.085938 C 300.335938 324.90625 302.578125 324.382812 304.824219 324.460938 C 306.203125 324.507812 307.332031 324.964844 308.605469 325.433594 C 308.890625 325.539062 308.792969 324.75 308.515625 324.648438 C 306.292969 323.828125 304.300781 323.441406 301.898438 323.871094 C 299.050781 324.382812 296.566406 326.144531 294.625 328.21875 C 292.675781 330.304688 291.035156 332.910156 290.28125 335.667969 C 289.476562 338.605469 289.886719 341.738281 290.878906 344.570312 C 292.527344 349.285156 296.019531 352.886719 300.871094 354.160156 C 305.121094 355.277344 309.855469 354.515625 313.589844 352.226562 C 318.15625 349.417969 320.324219 344.003906 319.4375 338.785156 C 318.441406 332.929688 314.230469 326.71875 308.515625 324.648438 C 308.230469 324.546875 308.332031 325.332031 308.605469 325.433594 " fill-opacity="1" fill-rule="nonzero"/><g clip-path="url(#f0c09d741d)"><path fill="#adbcb3" d="M 348.835938 352.617188 C 343.898438 348.847656 341.8125 341.894531 342.113281 335.882812 C 342.382812 330.5625 345.570312 325.730469 350.417969 323.496094 C 354.75 321.496094 359.894531 321.761719 364.265625 323.464844 C 369.246094 325.40625 372.570312 329.328125 373.773438 334.496094 C 374.519531 337.710938 374.371094 341.117188 373.316406 344.242188 C 372.164062 347.640625 369.691406 350.074219 366.886719 352.175781 C 363.957031 354.371094 360.410156 355.800781 356.71875 355.769531 C 354.871094 355.757812 352.273438 355.292969 350.785156 354.132812 C 350.132812 353.628906 349.484375 353.125 348.835938 352.617188 C 348.542969 352.394531 348.585938 353.1875 348.800781 353.355469 C 349.421875 353.839844 350.050781 354.324219 350.671875 354.808594 C 351.9375 355.792969 353.917969 356.214844 355.464844 356.453125 C 358.71875 356.941406 362.140625 355.96875 364.957031 354.355469 C 370.332031 351.269531 374.113281 346.664062 374.660156 340.363281 C 375.082031 335.507812 373.640625 330.207031 370.234375 326.644531 C 367.125 323.390625 362.597656 321.632812 358.160156 321.339844 C 351.011719 320.867188 344.476562 324.894531 342.277344 331.820312 C 341.113281 335.503906 341.527344 339.675781 342.527344 343.335938 C 343.566406 347.175781 345.605469 350.910156 348.800781 353.355469 C 349.097656 353.578125 349.050781 352.785156 348.835938 352.617188 " fill-opacity="1" fill-rule="nonzero"/></g><path fill="#adbcb3" d="M 361.824219 324.484375 C 367.671875 326.605469 371.929688 333.253906 372.382812 339.316406 C 372.777344 344.570312 369.492188 349.238281 364.871094 351.421875 C 360.683594 353.394531 355.503906 353.433594 351.316406 351.453125 C 345.394531 348.65625 342.378906 340.941406 344.058594 334.78125 C 345.109375 330.949219 348.269531 327.191406 351.621094 325.132812 C 353.546875 323.953125 355.792969 323.429688 358.039062 323.507812 C 359.421875 323.554688 360.554688 324.011719 361.824219 324.484375 C 362.109375 324.589844 362.011719 323.796875 361.738281 323.695312 C 359.507812 322.875 357.515625 322.488281 355.117188 322.917969 C 352.269531 323.429688 349.78125 325.191406 347.84375 327.265625 C 345.890625 329.351562 344.253906 331.960938 343.5 334.714844 C 342.695312 337.652344 343.105469 340.785156 344.097656 343.617188 C 345.746094 348.328125 349.238281 351.9375 354.085938 353.207031 C 358.339844 354.324219 363.074219 353.566406 366.804688 351.269531 C 371.375 348.464844 373.542969 343.050781 372.65625 337.832031 C 371.660156 331.972656 367.453125 325.765625 361.738281 323.695312 C 361.449219 323.59375 361.546875 324.382812 361.824219 324.484375 " fill-opacity="1" fill-rule="nonzero"/></svg>