<svg xmlns="http://www.w3.org/2000/svg" xmlns:xlink="http://www.w3.org/1999/xlink" width="500" zoomAndPan="magnify" viewBox="0 0 375 374.999991" height="500" preserveAspectRatio="xMidYMid meet" version="1.0"><defs><clipPath id="6db7ae6aaa"><path d="M 284 139 L 363.289062 139 L 363.289062 219 L 284 219 Z M 284 139 " clip-rule="nonzero"/></clipPath><clipPath id="825fa5e4da"><path d="M 11.539062 147 L 205 147 L 205 350 L 11.539062 350 Z M 11.539062 147 " clip-rule="nonzero"/></clipPath><clipPath id="1bf4508a59"><path d="M 237.503906 187.5 L 301.253906 187.5 L 301.253906 251.25 L 237.503906 251.25 Z M 237.503906 187.5 " clip-rule="nonzero"/></clipPath></defs><path fill="#13543d" d="M 268 126.996094 L 266.84375 144.21875 C 261.351562 178.917969 245.28125 206.667969 218.636719 227.46875 C 191.808594 248.257812 160.214844 256.6875 123.859375 252.757812 C 89.160156 247.265625 61.410156 231.199219 40.605469 204.554688 C 33.9375 195.941406 28.449219 186.554688 24.132812 176.398438 L 18.691406 160.734375 C 15.703125 149.957031 14.191406 138.710938 14.160156 126.996094 C 15.066406 91.039062 27.457031 61.125 51.332031 37.25 C 75.210938 13.375 105.125 0.980469 141.082031 0.0742188 C 177.035156 0.980469 206.953125 13.375 230.828125 37.25 C 254.703125 61.125 267.09375 91.039062 268 126.996094 " fill-opacity="0.804" fill-rule="nonzero"/><path fill="#1f815e" d="M 351.84375 88.0625 L 351.152344 98.898438 C 347.867188 120.726562 338.253906 138.183594 322.316406 151.273438 C 306.269531 164.347656 287.371094 169.652344 265.625 167.179688 C 244.867188 163.726562 228.269531 153.617188 215.824219 136.855469 C 211.835938 131.4375 208.554688 125.53125 205.972656 119.144531 L 202.71875 109.289062 C 200.929688 102.507812 200.027344 95.433594 200.003906 88.0625 C 200.546875 65.445312 207.960938 46.625 222.242188 31.605469 C 236.523438 16.585938 254.417969 8.789062 275.925781 8.21875 C 297.433594 8.789062 315.328125 16.585938 329.609375 31.605469 C 343.890625 46.625 351.300781 65.445312 351.84375 88.0625 " fill-opacity="0.745" fill-rule="nonzero"/><g clip-path="url(#6db7ae6aaa)"><path fill="#24aa7a" d="M 363.457031 179.378906 L 363.097656 184.726562 C 361.394531 195.5 356.402344 204.117188 348.128906 210.574219 C 339.800781 217.027344 329.992188 219.644531 318.703125 218.425781 C 307.925781 216.722656 299.3125 211.730469 292.851562 203.457031 C 290.78125 200.785156 289.078125 197.871094 287.738281 194.71875 L 286.046875 189.855469 C 285.121094 186.507812 284.652344 183.015625 284.640625 179.378906 C 284.921875 168.214844 288.769531 158.925781 296.183594 151.511719 C 303.597656 144.097656 312.886719 140.25 324.050781 139.96875 C 335.214844 140.25 344.503906 144.097656 351.914062 151.511719 C 359.328125 158.925781 363.175781 168.214844 363.457031 179.378906 " fill-opacity="0.816" fill-rule="nonzero"/></g><g clip-path="url(#825fa5e4da)"><path fill="#0a9161" d="M 204.984375 248.613281 L 204.101562 262.292969 C 199.917969 289.847656 187.671875 311.886719 167.367188 328.40625 C 146.921875 344.914062 122.847656 351.609375 95.140625 348.488281 C 68.695312 344.128906 47.546875 331.367188 31.695312 310.207031 C 26.617188 303.367188 22.429688 295.914062 19.144531 287.847656 L 14.996094 275.410156 C 12.71875 266.851562 11.566406 257.917969 11.542969 248.613281 C 12.234375 220.0625 21.675781 196.304688 39.871094 177.34375 C 58.066406 158.382812 80.863281 148.542969 108.265625 147.820312 C 135.664062 148.542969 158.460938 158.382812 176.65625 177.34375 C 194.851562 196.304688 204.292969 220.0625 204.984375 248.613281 " fill-opacity="0.643" fill-rule="nonzero"/></g><path fill="#13543d" d="M 262.175781 234.125 C 258.179688 235.066406 257.417969 235.828125 256.480469 239.824219 C 255.539062 235.828125 254.777344 235.066406 250.78125 234.125 C 254.777344 233.183594 255.539062 232.421875 256.480469 228.425781 C 257.417969 232.421875 258.179688 233.183594 262.175781 234.125 Z M 262.175781 234.125 " fill-opacity="1" fill-rule="nonzero"/><g clip-path="url(#1bf4508a59)"><path fill="#13543d" d="M 301.199219 219.347656 C 271.746094 220.671875 270.675781 221.746094 269.351562 251.195312 C 268.027344 221.746094 266.953125 220.671875 237.503906 219.347656 C 266.953125 218.023438 268.027344 216.949219 269.351562 187.5 C 270.675781 216.949219 271.746094 218.023438 301.199219 219.347656 Z M 301.199219 219.347656 " fill-opacity="1" fill-rule="nonzero"/></g><path fill="#13543d" d="M 262.160156 202.527344 C 255.582031 202.824219 255.34375 203.0625 255.046875 209.640625 C 254.75 203.0625 254.511719 202.824219 247.933594 202.527344 C 254.511719 202.230469 254.75 201.992188 255.046875 195.414062 C 255.34375 201.992188 255.582031 202.230469 262.160156 202.527344 Z M 262.160156 202.527344 " fill-opacity="1" fill-rule="nonzero"/><path fill="#13543d" d="M 297.875 201.925781 C 288.214844 202.359375 287.863281 202.710938 287.429688 212.367188 C 286.996094 202.710938 286.640625 202.359375 276.984375 201.925781 C 286.640625 201.492188 286.996094 201.136719 287.429688 191.480469 C 287.863281 201.136719 288.214844 201.492188 297.875 201.925781 Z M 297.875 201.925781 " fill-opacity="1" fill-rule="nonzero"/><path fill="#13543d" d="M 297.875 194.8125 C 295.242188 194.929688 295.144531 195.027344 295.027344 197.65625 C 294.910156 195.027344 294.8125 194.929688 292.183594 194.8125 C 294.8125 194.695312 294.910156 194.597656 295.027344 191.96875 C 295.144531 194.597656 295.242188 194.695312 297.875 194.8125 Z M 297.875 194.8125 " fill-opacity="1" fill-rule="nonzero"/><path fill="#13543d" d="M 281.464844 191.480469 C 278.832031 191.597656 278.738281 191.695312 278.621094 194.324219 C 278.5 191.695312 278.40625 191.597656 275.773438 191.480469 C 278.40625 191.363281 278.5 191.265625 278.621094 188.636719 C 278.738281 191.265625 278.832031 191.363281 281.464844 191.480469 Z M 281.464844 191.480469 " fill-opacity="1" fill-rule="nonzero"/></svg>