<svg xmlns="http://www.w3.org/2000/svg" xmlns:xlink="http://www.w3.org/1999/xlink" width="500" zoomAndPan="magnify" viewBox="0 0 375 374.999991" height="500" preserveAspectRatio="xMidYMid meet" version="1.2"><defs><clipPath id="29e27db093"><path d="M 292.183594 29.222656 L 375 29.222656 L 375 121.648438 L 292.183594 121.648438 Z M 292.183594 29.222656 "/></clipPath><clipPath id="e4d1e21c31"><path d="M 267.183594 50 L 271 50 L 271 54 L 267.183594 54 Z M 267.183594 50 "/></clipPath><clipPath id="f0f14dc9ff"><path d="M 267.183594 39 L 272 39 L 272 43 L 267.183594 43 Z M 267.183594 39 "/></clipPath><clipPath id="76f4edfe32"><path d="M 307 12.226562 L 311 12.226562 L 311 17 L 307 17 Z M 307 12.226562 "/></clipPath><clipPath id="267c58d996"><path d="M 34 292.238281 L 43 292.238281 L 43 303 L 34 303 Z M 34 292.238281 "/></clipPath></defs><g id="b0f8b3e328"><g clip-rule="nonzero" clip-path="url(#29e27db093)"><path style=" stroke:none;fill-rule:nonzero;fill:#7ca494;fill-opacity:1;" d="M 293.269531 80.085938 C 287.699219 94.785156 307.675781 113.535156 320.550781 118.140625 C 341.003906 127.171875 361.796875 117.578125 374.140625 102.914062 C 395.816406 77.617188 376.457031 25.355469 336.617188 29.492188 C 318.039062 30.675781 292.878906 53.359375 294.28125 73.289062 "/></g><path style=" stroke:none;fill-rule:nonzero;fill:#d4cbcb;fill-opacity:1;" d="M 273.988281 63.171875 C 273.679688 61.066406 270.417969 61.546875 270.730469 63.652344 C 271.039062 65.753906 274.300781 65.273438 273.988281 63.171875 "/><path style=" stroke:none;fill-rule:nonzero;fill:#d4cbcb;fill-opacity:1;" d="M 280.609375 51.84375 C 280.296875 49.742188 277.039062 50.222656 277.347656 52.324219 C 277.65625 54.425781 280.914062 53.945312 280.609375 51.84375 "/><path style=" stroke:none;fill-rule:nonzero;fill:#d4cbcb;fill-opacity:1;" d="M 284.183594 58.566406 C 283.875 56.464844 280.613281 56.945312 280.925781 59.046875 C 281.234375 61.148438 284.492188 60.667969 284.183594 58.566406 "/><path style=" stroke:none;fill-rule:nonzero;fill:#d4cbcb;fill-opacity:1;" d="M 275.777344 57.730469 C 275.46875 55.628906 272.210938 56.109375 272.519531 58.210938 C 272.828125 60.3125 276.085938 59.832031 275.777344 57.730469 "/><path style=" stroke:none;fill-rule:nonzero;fill:#d4cbcb;fill-opacity:1;" d="M 292.394531 65.125 C 292.085938 63.019531 288.824219 63.5 289.132812 65.601562 C 289.445312 67.707031 292.703125 67.226562 292.394531 65.125 "/><path style=" stroke:none;fill-rule:nonzero;fill:#d4cbcb;fill-opacity:1;" d="M 299.085938 54.304688 C 298.777344 52.203125 295.515625 52.683594 295.828125 54.785156 C 296.136719 56.886719 299.394531 56.40625 299.085938 54.304688 "/><path style=" stroke:none;fill-rule:nonzero;fill:#d4cbcb;fill-opacity:1;" d="M 293.644531 52.515625 C 293.335938 50.414062 290.078125 50.894531 290.386719 52.996094 C 290.699219 55.097656 293.957031 54.617188 293.644531 52.515625 "/><path style=" stroke:none;fill-rule:nonzero;fill:#d4cbcb;fill-opacity:1;" d="M 287.832031 48.191406 C 287.523438 46.089844 284.265625 46.570312 284.574219 48.671875 C 284.882812 50.773438 288.144531 50.292969 287.832031 48.191406 "/><path style=" stroke:none;fill-rule:nonzero;fill:#d4cbcb;fill-opacity:1;" d="M 286.136719 40.160156 C 285.828125 38.058594 282.566406 38.539062 282.875 40.640625 C 283.1875 42.742188 286.445312 42.261719 286.136719 40.160156 "/><path style=" stroke:none;fill-rule:nonzero;fill:#d4cbcb;fill-opacity:1;" d="M 296.078125 44.394531 C 295.769531 42.292969 292.507812 42.769531 292.816406 44.875 C 293.128906 46.976562 296.386719 46.496094 296.078125 44.394531 "/><path style=" stroke:none;fill-rule:nonzero;fill:#d4cbcb;fill-opacity:1;" d="M 304.40625 44.722656 C 304.097656 42.621094 300.839844 43.097656 301.148438 45.199219 C 301.457031 47.300781 304.71875 46.824219 304.40625 44.722656 "/><path style=" stroke:none;fill-rule:nonzero;fill:#d4cbcb;fill-opacity:1;" d="M 306.777344 57.316406 C 306.46875 55.214844 303.207031 55.695312 303.519531 57.796875 C 303.824219 59.898438 307.085938 59.417969 306.777344 57.316406 "/><path style=" stroke:none;fill-rule:nonzero;fill:#d4cbcb;fill-opacity:1;" d="M 304.882812 72.605469 C 304.574219 70.503906 301.316406 70.984375 301.625 73.085938 C 301.933594 75.1875 305.191406 74.707031 304.882812 72.605469 "/><path style=" stroke:none;fill-rule:nonzero;fill:#d4cbcb;fill-opacity:1;" d="M 293.882812 75.257812 C 293.574219 73.15625 290.316406 73.632812 290.625 75.738281 C 290.933594 77.839844 294.191406 77.359375 293.882812 75.257812 "/><path style=" stroke:none;fill-rule:nonzero;fill:#d4cbcb;fill-opacity:1;" d="M 285.480469 74.421875 C 285.171875 72.320312 281.910156 72.800781 282.21875 74.902344 C 282.527344 77.003906 285.785156 76.523438 285.480469 74.421875 "/><path style=" stroke:none;fill-rule:nonzero;fill:#d4cbcb;fill-opacity:1;" d="M 284.4375 67.328125 C 284.125 65.226562 280.867188 65.707031 281.175781 67.808594 C 281.484375 69.910156 284.746094 69.429688 284.4375 67.328125 "/><path style=" stroke:none;fill-rule:nonzero;fill:#d4cbcb;fill-opacity:1;" d="M 276.132812 74.242188 C 275.828125 72.140625 272.566406 72.621094 272.875 74.722656 C 273.183594 76.824219 276.441406 76.34375 276.132812 74.242188 "/><path style=" stroke:none;fill-rule:nonzero;fill:#d4cbcb;fill-opacity:1;" d="M 281.605469 83.273438 C 281.292969 81.171875 278.035156 81.652344 278.34375 83.753906 C 278.652344 85.855469 281.914062 85.378906 281.605469 83.273438 "/><g clip-rule="nonzero" clip-path="url(#e4d1e21c31)"><path style=" stroke:none;fill-rule:nonzero;fill:#d4cbcb;fill-opacity:1;" d="M 270.753906 51.742188 C 270.445312 49.636719 267.1875 50.117188 267.496094 52.21875 C 267.804688 54.320312 271.066406 53.839844 270.753906 51.742188 "/></g><g clip-rule="nonzero" clip-path="url(#f0f14dc9ff)"><path style=" stroke:none;fill-rule:nonzero;fill:#d4cbcb;fill-opacity:1;" d="M 271.21875 40.800781 C 270.910156 38.699219 267.648438 39.175781 267.960938 41.28125 C 268.269531 43.382812 271.527344 42.902344 271.21875 40.800781 "/></g><path style=" stroke:none;fill-rule:nonzero;fill:#d4cbcb;fill-opacity:1;" d="M 277.269531 32.664062 C 276.960938 30.5625 273.699219 31.042969 274.007812 33.140625 C 274.316406 35.242188 277.578125 34.765625 277.269531 32.664062 "/><path style=" stroke:none;fill-rule:nonzero;fill:#d4cbcb;fill-opacity:1;" d="M 278.910156 43.8125 C 278.601562 41.710938 275.339844 42.1875 275.648438 44.292969 C 275.957031 46.390625 279.21875 45.914062 278.910156 43.8125 "/><path style=" stroke:none;fill-rule:nonzero;fill:#d4cbcb;fill-opacity:1;" d="M 285.125 22.710938 C 284.816406 20.605469 281.554688 21.085938 281.863281 23.1875 C 282.171875 25.289062 285.433594 24.808594 285.125 22.710938 "/><path style=" stroke:none;fill-rule:nonzero;fill:#d4cbcb;fill-opacity:1;" d="M 282.976562 29.234375 C 282.667969 27.132812 279.40625 27.613281 279.71875 29.714844 C 280.027344 31.816406 283.285156 31.339844 282.976562 29.234375 "/><path style=" stroke:none;fill-rule:nonzero;fill:#d4cbcb;fill-opacity:1;" d="M 290.160156 32.320312 C 289.851562 30.21875 286.589844 30.699219 286.898438 32.800781 C 287.210938 34.902344 290.46875 34.421875 290.160156 32.320312 "/><path style=" stroke:none;fill-rule:nonzero;fill:#d4cbcb;fill-opacity:1;" d="M 302.394531 31.039062 C 302.085938 28.9375 298.828125 29.417969 299.136719 31.519531 C 299.445312 33.621094 302.703125 33.140625 302.394531 31.039062 "/><path style=" stroke:none;fill-rule:nonzero;fill:#d4cbcb;fill-opacity:1;" d="M 303.664062 22.054688 C 303.355469 19.953125 300.09375 20.429688 300.402344 22.535156 C 300.710938 24.636719 303.972656 24.15625 303.664062 22.054688 "/><path style=" stroke:none;fill-rule:nonzero;fill:#d4cbcb;fill-opacity:1;" d="M 311.28125 24.558594 C 310.972656 22.453125 307.710938 22.933594 308.019531 25.035156 C 308.328125 27.140625 311.585938 26.660156 311.28125 24.558594 "/><path style=" stroke:none;fill-rule:nonzero;fill:#d4cbcb;fill-opacity:1;" d="M 314.230469 37.585938 C 313.917969 35.484375 310.660156 35.960938 310.96875 38.066406 C 311.277344 40.164062 314.539062 39.683594 314.230469 37.585938 "/><path style=" stroke:none;fill-rule:nonzero;fill:#d4cbcb;fill-opacity:1;" d="M 322.992188 37.332031 C 322.683594 35.226562 319.425781 35.707031 319.734375 37.808594 C 320.042969 39.914062 323.304688 39.433594 322.992188 37.332031 "/><path style=" stroke:none;fill-rule:nonzero;fill:#d4cbcb;fill-opacity:1;" d="M 335.644531 49.445312 C 335.335938 47.347656 332.078125 47.824219 332.386719 49.925781 C 332.695312 52.027344 335.953125 51.550781 335.644531 49.445312 "/><path style=" stroke:none;fill-rule:nonzero;fill:#d4cbcb;fill-opacity:1;" d="M 339.890625 43.128906 C 339.582031 41.027344 336.324219 41.507812 336.632812 43.609375 C 336.941406 45.710938 340.203125 45.230469 339.890625 43.128906 "/><path style=" stroke:none;fill-rule:nonzero;fill:#d4cbcb;fill-opacity:1;" d="M 345.914062 45.351562 C 345.605469 43.25 342.34375 43.726562 342.652344 45.828125 C 342.960938 47.933594 346.222656 47.453125 345.914062 45.351562 "/><path style=" stroke:none;fill-rule:nonzero;fill:#d4cbcb;fill-opacity:1;" d="M 350.589844 56.050781 C 350.28125 53.945312 347.023438 54.425781 347.332031 56.527344 C 347.640625 58.632812 350.898438 58.152344 350.589844 56.050781 "/><path style=" stroke:none;fill-rule:nonzero;fill:#d4cbcb;fill-opacity:1;" d="M 345.195312 65.125 C 344.886719 63.023438 341.628906 63.503906 341.9375 65.605469 C 342.246094 67.707031 345.507812 67.226562 345.195312 65.125 "/><path style=" stroke:none;fill-rule:nonzero;fill:#d4cbcb;fill-opacity:1;" d="M 345.808594 55.203125 C 345.5 53.097656 342.238281 53.578125 342.546875 55.679688 C 342.855469 57.78125 346.117188 57.300781 345.808594 55.203125 "/><path style=" stroke:none;fill-rule:nonzero;fill:#d4cbcb;fill-opacity:1;" d="M 338.402344 68.195312 C 338.09375 66.09375 334.832031 66.574219 335.140625 68.675781 C 335.449219 70.777344 338.710938 70.296875 338.402344 68.195312 "/><path style=" stroke:none;fill-rule:nonzero;fill:#d4cbcb;fill-opacity:1;" d="M 331.351562 62.503906 C 331.042969 60.398438 327.785156 60.878906 328.09375 62.980469 C 328.398438 65.082031 331.660156 64.605469 331.351562 62.503906 "/><path style=" stroke:none;fill-rule:nonzero;fill:#d4cbcb;fill-opacity:1;" d="M 324.4375 54.199219 C 324.128906 52.097656 320.867188 52.578125 321.175781 54.679688 C 321.484375 56.78125 324.746094 56.304688 324.4375 54.199219 "/><path style=" stroke:none;fill-rule:nonzero;fill:#d4cbcb;fill-opacity:1;" d="M 317.9375 76.898438 C 317.628906 74.796875 314.367188 75.273438 314.679688 77.378906 C 314.988281 79.480469 318.246094 79 317.9375 76.898438 "/><path style=" stroke:none;fill-rule:nonzero;fill:#d4cbcb;fill-opacity:1;" d="M 326.433594 81.859375 C 326.121094 79.757812 322.863281 80.238281 323.171875 82.339844 C 323.484375 84.441406 326.742188 83.964844 326.433594 81.859375 "/><path style=" stroke:none;fill-rule:nonzero;fill:#d4cbcb;fill-opacity:1;" d="M 314.449219 91.90625 C 314.140625 89.804688 310.882812 90.28125 311.191406 92.386719 C 311.5 94.488281 314.757812 94.007812 314.449219 91.90625 "/><path style=" stroke:none;fill-rule:nonzero;fill:#d4cbcb;fill-opacity:1;" d="M 308.578125 90.699219 C 308.269531 88.597656 305.007812 89.074219 305.316406 91.179688 C 305.625 93.28125 308.886719 92.800781 308.578125 90.699219 "/><path style=" stroke:none;fill-rule:nonzero;fill:#d4cbcb;fill-opacity:1;" d="M 297.027344 82.5625 C 296.71875 80.457031 293.460938 80.9375 293.769531 83.039062 C 294.078125 85.140625 297.339844 84.660156 297.027344 82.5625 "/><path style=" stroke:none;fill-rule:nonzero;fill:#d4cbcb;fill-opacity:1;" d="M 291.542969 87.507812 C 291.234375 85.40625 287.976562 85.886719 288.285156 87.988281 C 288.59375 90.089844 291.851562 89.609375 291.542969 87.507812 "/><path style=" stroke:none;fill-rule:nonzero;fill:#d4cbcb;fill-opacity:1;" d="M 315.34375 45.183594 C 315.039062 43.082031 311.777344 43.5625 312.085938 45.664062 C 312.394531 47.765625 315.65625 47.289062 315.34375 45.183594 "/><path style=" stroke:none;fill-rule:nonzero;fill:#d4cbcb;fill-opacity:1;" d="M 319.027344 59.65625 C 318.71875 57.554688 315.457031 58.035156 315.765625 60.136719 C 316.074219 62.238281 319.335938 61.757812 319.027344 59.65625 "/><path style=" stroke:none;fill-rule:nonzero;fill:#d4cbcb;fill-opacity:1;" d="M 315.0625 64.378906 C 314.753906 62.277344 311.492188 62.757812 311.800781 64.859375 C 312.113281 66.960938 315.371094 66.480469 315.0625 64.378906 "/><path style=" stroke:none;fill-rule:nonzero;fill:#d4cbcb;fill-opacity:1;" d="M 322.902344 68.402344 C 322.589844 66.300781 319.332031 66.78125 319.640625 68.882812 C 319.949219 70.984375 323.210938 70.503906 322.902344 68.402344 "/><path style=" stroke:none;fill-rule:nonzero;fill:#d4cbcb;fill-opacity:1;" d="M 305.808594 68.328125 C 305.5 66.226562 302.238281 66.707031 302.550781 68.808594 C 302.859375 70.910156 306.117188 70.429688 305.808594 68.328125 "/><path style=" stroke:none;fill-rule:nonzero;fill:#d4cbcb;fill-opacity:1;" d="M 312.023438 82.425781 C 311.714844 80.324219 308.453125 80.804688 308.761719 82.90625 C 309.070312 85.007812 312.332031 84.527344 312.023438 82.425781 "/><path style=" stroke:none;fill-rule:nonzero;fill:#d4cbcb;fill-opacity:1;" d="M 334.316406 79.152344 C 334.007812 77.046875 330.746094 77.527344 331.058594 79.628906 C 331.367188 81.730469 334.625 81.253906 334.316406 79.152344 "/><path style=" stroke:none;fill-rule:nonzero;fill:#d4cbcb;fill-opacity:1;" d="M 331.902344 38.089844 C 331.597656 35.988281 328.335938 36.46875 328.644531 38.570312 C 328.953125 40.671875 332.214844 40.195312 331.902344 38.089844 "/><path style=" stroke:none;fill-rule:nonzero;fill:#d4cbcb;fill-opacity:1;" d="M 332.367188 27.152344 C 332.058594 25.050781 328.796875 25.527344 329.105469 27.628906 C 329.417969 29.734375 332.675781 29.253906 332.367188 27.152344 "/><path style=" stroke:none;fill-rule:nonzero;fill:#d4cbcb;fill-opacity:1;" d="M 325.273438 28.195312 C 324.964844 26.09375 321.703125 26.574219 322.011719 28.675781 C 322.320312 30.777344 325.582031 30.296875 325.273438 28.195312 "/><path style=" stroke:none;fill-rule:nonzero;fill:#d4cbcb;fill-opacity:1;" d="M 323.855469 18.566406 C 323.546875 16.464844 320.289062 16.945312 320.597656 19.046875 C 320.90625 21.148438 324.164062 20.667969 323.855469 18.566406 "/><path style=" stroke:none;fill-rule:nonzero;fill:#d4cbcb;fill-opacity:1;" d="M 336.972656 19.746094 C 336.664062 17.644531 333.402344 18.121094 333.710938 20.222656 C 334.023438 22.324219 337.28125 21.847656 336.972656 19.746094 "/><path style=" stroke:none;fill-rule:nonzero;fill:#d4cbcb;fill-opacity:1;" d="M 342.425781 25.152344 C 342.117188 23.050781 338.859375 23.53125 339.167969 25.636719 C 339.476562 27.734375 342.734375 27.253906 342.425781 25.152344 "/><path style=" stroke:none;fill-rule:nonzero;fill:#d4cbcb;fill-opacity:1;" d="M 347.253906 36.871094 C 346.945312 34.769531 343.6875 35.246094 343.996094 37.347656 C 344.304688 39.449219 347.5625 38.972656 347.253906 36.871094 "/><path style=" stroke:none;fill-rule:nonzero;fill:#d4cbcb;fill-opacity:1;" d="M 336.167969 35.394531 C 335.859375 33.292969 332.597656 33.773438 332.90625 35.875 C 333.214844 37.976562 336.476562 37.496094 336.167969 35.394531 "/><path style=" stroke:none;fill-rule:nonzero;fill:#d4cbcb;fill-opacity:1;" d="M 290.757812 18.773438 C 290.449219 16.671875 287.191406 17.152344 287.5 19.253906 C 287.808594 21.355469 291.066406 20.875 290.757812 18.773438 "/><g clip-rule="nonzero" clip-path="url(#76f4edfe32)"><path style=" stroke:none;fill-rule:nonzero;fill:#d4cbcb;fill-opacity:1;" d="M 310.296875 14.347656 C 309.988281 12.246094 306.726562 12.726562 307.035156 14.828125 C 307.347656 16.929688 310.605469 16.449219 310.296875 14.347656 "/></g><path style=" stroke:none;fill-rule:nonzero;fill:#d4cbcb;fill-opacity:1;" d="M 324.289062 88.386719 C 323.976562 86.285156 320.71875 86.765625 321.027344 88.867188 C 321.335938 90.96875 324.597656 90.492188 324.289062 88.386719 "/><path style=" stroke:none;fill-rule:nonzero;fill:#d4cbcb;fill-opacity:1;" d="M 304.269531 82.53125 C 303.960938 80.429688 300.703125 80.90625 301.011719 83.011719 C 301.320312 85.113281 304.582031 84.632812 304.269531 82.53125 "/><path style=" stroke:none;fill-rule:nonzero;fill:#d4cbcb;fill-opacity:1;" d="M 296.882812 28.746094 C 296.574219 26.644531 293.3125 27.121094 293.621094 29.226562 C 293.929688 31.324219 297.191406 30.847656 296.882812 28.746094 "/><path style=" stroke:none;fill-rule:nonzero;fill:#d4cbcb;fill-opacity:1;" d="M 324.183594 45.4375 C 323.875 43.335938 320.617188 43.816406 320.925781 45.917969 C 321.234375 48.019531 324.492188 47.539062 324.183594 45.4375 "/><path style=" stroke:none;fill-rule:nonzero;fill:#d4cbcb;fill-opacity:1;" d="M 312.425781 57.003906 C 312.117188 54.902344 308.855469 55.378906 309.164062 57.484375 C 309.472656 59.582031 312.734375 59.105469 312.425781 57.003906 "/><path style=" stroke:none;fill-rule:nonzero;fill:#d4cbcb;fill-opacity:1;" d="M 301.472656 17.71875 C 301.164062 15.613281 297.902344 16.09375 298.214844 18.195312 C 298.523438 20.296875 301.78125 19.820312 301.472656 17.71875 "/><path style=" stroke:none;fill-rule:nonzero;fill:#d4cbcb;fill-opacity:1;" d="M 316.898438 17.003906 C 316.589844 14.902344 313.328125 15.378906 313.636719 17.480469 C 313.945312 19.582031 317.207031 19.101562 316.898438 17.003906 "/><path style=" stroke:none;fill-rule:nonzero;fill:#d4cbcb;fill-opacity:1;" d="M 306.984375 37.613281 C 306.675781 35.511719 303.417969 35.992188 303.726562 38.09375 C 304.035156 40.195312 307.292969 39.714844 306.984375 37.613281 "/><path style=" stroke:none;fill-rule:nonzero;fill:#d4cbcb;fill-opacity:1;" d="M 338.246094 59.417969 C 338.015625 57.839844 335.570312 58.199219 335.800781 59.777344 C 336.035156 61.355469 338.476562 60.996094 338.246094 59.417969 "/><path style=" stroke:none;fill-rule:nonzero;fill:#d4cbcb;fill-opacity:1;" d="M 341.136719 75.558594 C 340.90625 73.980469 338.460938 74.339844 338.691406 75.917969 C 338.925781 77.496094 341.371094 77.136719 341.136719 75.558594 "/><path style=" stroke:none;fill-rule:nonzero;fill:#d4cbcb;fill-opacity:1;" d="M 330.988281 73.425781 C 330.757812 71.847656 328.3125 72.210938 328.542969 73.785156 C 328.773438 75.363281 331.21875 75.003906 330.988281 73.425781 "/><path style=" stroke:none;fill-rule:nonzero;fill:#d4cbcb;fill-opacity:1;" d="M 298.46875 91.667969 C 298.238281 90.089844 295.792969 90.449219 296.023438 92.027344 C 296.257812 93.601562 298.699219 93.242188 298.46875 91.667969 "/><path style=" stroke:none;fill-rule:nonzero;fill:#d4cbcb;fill-opacity:1;" d="M 298.203125 61.683594 C 297.96875 60.105469 295.527344 60.464844 295.757812 62.042969 C 295.988281 63.617188 298.433594 63.257812 298.203125 61.683594 "/><path style=" stroke:none;fill-rule:nonzero;fill:#d4cbcb;fill-opacity:1;" d="M 299.125 39.804688 C 298.894531 38.226562 296.449219 38.585938 296.683594 40.164062 C 296.914062 41.738281 299.359375 41.382812 299.125 39.804688 "/><path style=" stroke:none;fill-rule:nonzero;fill:#d4cbcb;fill-opacity:1;" d="M 293.195312 24.109375 C 292.964844 22.535156 290.519531 22.894531 290.75 24.472656 C 290.984375 26.046875 293.429688 25.6875 293.195312 24.109375 "/><path style=" stroke:none;fill-rule:nonzero;fill:#d4cbcb;fill-opacity:1;" d="M 320.140625 24.289062 C 319.910156 22.714844 317.464844 23.070312 317.695312 24.648438 C 317.929688 26.226562 320.371094 25.867188 320.140625 24.289062 "/><path style=" stroke:none;fill-rule:nonzero;fill:#d4cbcb;fill-opacity:1;" d="M 330.59375 17.917969 C 330.363281 16.34375 327.917969 16.699219 328.148438 18.277344 C 328.378906 19.855469 330.824219 19.496094 330.59375 17.917969 "/><path style=" stroke:none;fill-rule:nonzero;fill:#d4cbcb;fill-opacity:1;" d="M 308.875 49.761719 C 308.640625 48.183594 306.195312 48.542969 306.429688 50.121094 C 306.660156 51.695312 309.105469 51.335938 308.875 49.761719 "/><path style=" stroke:none;fill-rule:nonzero;fill:#d4cbcb;fill-opacity:1;" d="M 316.339844 51.25 C 316.109375 49.675781 313.664062 50.035156 313.894531 51.609375 C 314.125 53.1875 316.574219 52.828125 316.339844 51.25 "/><path style=" stroke:none;fill-rule:nonzero;fill:#d4cbcb;fill-opacity:1;" d="M 311.792969 73.140625 C 311.5625 71.566406 309.117188 71.925781 309.347656 73.5 C 309.578125 75.078125 312.023438 74.71875 311.792969 73.140625 "/><path style=" stroke:none;fill-rule:nonzero;fill:#d4cbcb;fill-opacity:1;" d="M 318.214844 85.140625 C 317.984375 83.5625 315.539062 83.921875 315.773438 85.5 C 316 87.074219 318.449219 86.714844 318.214844 85.140625 "/><path style=" stroke:none;fill-rule:nonzero;fill:#849c84;fill-opacity:1;" d="M 61.710938 352.421875 C 61.945312 352.664062 62.136719 352.9375 62.285156 353.238281 C 62.433594 353.539062 62.535156 353.859375 62.582031 354.191406 C 62.632812 354.527344 62.632812 354.859375 62.578125 355.191406 C 62.527344 355.527344 62.421875 355.84375 62.273438 356.144531 C 61.605469 357.816406 61.09375 359.566406 60.296875 361.175781 C 59.769531 362.269531 59.046875 363.207031 58.125 363.992188 C 56.691406 365.171875 55.152344 366.1875 53.507812 367.046875 C 51.597656 368.042969 49.597656 367.636719 47.734375 366.714844 C 47.535156 366.628906 47.359375 366.507812 47.207031 366.347656 C 47.054688 366.1875 46.941406 366.003906 46.867188 365.796875 C 46.789062 365.589844 46.757812 365.378906 46.769531 365.160156 C 46.78125 364.9375 46.835938 364.730469 46.933594 364.53125 C 47.828125 362.546875 48.195312 360.28125 49.886719 358.695312 C 50.109375 358.421875 50.289062 358.125 50.417969 357.796875 C 50.859375 356.867188 51.453125 356.046875 52.207031 355.34375 C 52.957031 354.644531 53.8125 354.105469 54.769531 353.730469 C 56.039062 353.242188 57.289062 352.6875 58.59375 352.246094 C 59.769531 351.839844 60.738281 352.363281 61.710938 352.421875 Z M 58.160156 355.835938 C 54.75 355.351562 51.433594 360.757812 51.074219 363.789062 C 53.582031 363.742188 58.15625 359.335938 58.160156 355.835938 Z M 58.160156 355.835938 "/><path style=" stroke:none;fill-rule:nonzero;fill:#849c84;fill-opacity:1;" d="M 25.933594 353.792969 C 26.347656 354.632812 26.898438 355.59375 27.300781 356.613281 C 28.121094 358.597656 28.390625 360.652344 28.105469 362.777344 C 28.070312 363.078125 27.960938 363.34375 27.769531 363.574219 C 27.578125 363.804688 27.339844 363.964844 27.054688 364.050781 C 26.320312 364.371094 25.558594 364.472656 24.769531 364.363281 C 23.980469 364.253906 23.277344 363.941406 22.660156 363.433594 C 21.257812 362.578125 20.035156 361.515625 19 360.238281 C 17.964844 358.960938 17.167969 357.546875 16.621094 355.992188 C 15.886719 353.730469 15.210938 351.398438 15.832031 348.925781 C 15.863281 348.714844 15.921875 348.511719 16.003906 348.316406 C 16.085938 348.121094 16.195312 347.9375 16.324219 347.765625 C 16.453125 347.597656 16.601562 347.445312 16.765625 347.3125 C 16.933594 347.183594 17.113281 347.074219 17.308594 346.988281 C 17.503906 346.898438 17.707031 346.839844 17.914062 346.804688 C 18.125 346.769531 18.335938 346.761719 18.546875 346.78125 C 18.761719 346.796875 18.96875 346.84375 19.167969 346.914062 C 19.367188 346.984375 19.558594 347.078125 19.734375 347.199219 C 22.324219 348.898438 24.390625 351.097656 25.933594 353.792969 Z M 24.429688 360.21875 C 24.75 357.441406 21.8125 351.734375 19.40625 350.449219 C 18.425781 353.914062 21.230469 359.363281 24.421875 360.21875 Z M 24.429688 360.21875 "/><path style=" stroke:none;fill-rule:nonzero;fill:#849c84;fill-opacity:1;" d="M 14.207031 381.027344 C 12.78125 381.472656 11.40625 381.910156 10.027344 382.324219 C 9.507812 382.480469 8.949219 382.53125 8.445312 382.726562 C 8.082031 382.851562 7.714844 382.867188 7.34375 382.777344 C 6.972656 382.683594 6.65625 382.5 6.390625 382.222656 C 6.105469 382 5.917969 381.710938 5.835938 381.355469 C 5.753906 381 5.792969 380.660156 5.949219 380.332031 C 6.6875 377.910156 7.828125 375.695312 9.367188 373.6875 C 10.59375 372.15625 11.960938 370.769531 13.46875 369.519531 C 14.609375 368.621094 15.828125 367.847656 17.128906 367.207031 C 17.261719 367.136719 17.398438 367.085938 17.539062 367.050781 C 17.683594 367.015625 17.828125 366.996094 17.976562 366.996094 C 18.125 366.996094 18.269531 367.015625 18.410156 367.050781 C 18.554688 367.085938 18.691406 367.136719 18.820312 367.203125 C 18.953125 367.273438 19.074219 367.355469 19.183594 367.453125 C 19.292969 367.550781 19.390625 367.660156 19.472656 367.78125 C 19.558594 367.90625 19.625 368.035156 19.679688 368.171875 C 19.730469 368.308594 19.765625 368.453125 19.785156 368.597656 C 19.867188 369.132812 19.898438 369.671875 19.878906 370.214844 C 19.878906 371.164062 19.816406 372.113281 19.847656 373.0625 C 19.914062 373.949219 19.671875 374.742188 19.121094 375.441406 C 18.601562 376.097656 18.292969 376.9375 17.730469 377.546875 C 16.625 378.75 15.40625 379.855469 14.207031 381.027344 Z M 16.582031 371.6875 C 13.960938 372.683594 10.8125 376.539062 10.710938 378.699219 C 12.929688 377.652344 14.871094 376.414062 15.972656 374.214844 C 16.261719 373.394531 16.464844 372.550781 16.582031 371.6875 Z M 16.582031 371.6875 "/><path style=" stroke:none;fill-rule:nonzero;fill:#849c84;fill-opacity:1;" d="M 26.898438 320.695312 C 27.304688 321.371094 27.730469 322.039062 28.117188 322.726562 C 29.160156 324.722656 29.515625 326.835938 29.1875 329.066406 C 28.925781 331.292969 28.398438 333.457031 27.601562 335.554688 C 27.015625 337.222656 26.339844 337.527344 24.65625 337.125 C 22.101562 336.5 21.378906 335.675781 21.113281 333.0625 C 21.003906 332.023438 20.910156 330.980469 20.820312 329.9375 C 20.710938 328.113281 21 326.355469 21.695312 324.667969 C 22.082031 323.640625 22.5 322.621094 22.921875 321.609375 C 23.074219 321.238281 23.269531 320.894531 23.503906 320.570312 C 24.640625 319.007812 25.84375 319.074219 26.898438 320.695312 Z M 25.65625 324.015625 C 23.59375 326.453125 23.128906 330.898438 24.683594 333.171875 C 25.808594 331.484375 25.894531 329.550781 26.074219 327.714844 C 26.191406 326.566406 26.648438 325.242188 25.65625 324.015625 Z M 25.65625 324.015625 "/><path style=" stroke:none;fill-rule:nonzero;fill:#849c84;fill-opacity:1;" d="M 21.242188 384.832031 C 19.804688 383.941406 19.449219 383.222656 19.894531 381.558594 C 20.128906 380.117188 20.628906 378.773438 21.402344 377.535156 C 21.839844 376.753906 22.191406 375.9375 22.449219 375.078125 C 22.621094 374.667969 22.839844 374.277344 23.101562 373.914062 C 23.511719 373.289062 23.996094 372.726562 24.554688 372.226562 C 25.113281 371.730469 25.726562 371.3125 26.398438 370.976562 C 27.066406 370.640625 27.765625 370.398438 28.5 370.25 C 29.230469 370.097656 29.96875 370.046875 30.714844 370.089844 C 31.023438 370.078125 31.332031 370.042969 31.636719 369.980469 C 31.816406 370.109375 31.96875 370.265625 32.09375 370.449219 C 32.214844 370.632812 32.300781 370.835938 32.347656 371.050781 C 32.394531 371.269531 32.402344 371.488281 32.367188 371.707031 C 32.332031 371.925781 32.261719 372.132812 32.148438 372.324219 C 31.839844 373.476562 31.625 374.644531 31.511719 375.832031 C 31.324219 376.78125 31.015625 377.691406 30.59375 378.558594 C 30.167969 379.429688 29.644531 380.230469 29.015625 380.960938 C 28.386719 381.695312 27.675781 382.335938 26.882812 382.886719 C 26.089844 383.4375 25.238281 383.878906 24.332031 384.207031 C 23.324219 384.519531 22.292969 384.726562 21.242188 384.832031 Z M 29.496094 372.976562 C 28.851562 372.863281 28.222656 372.925781 27.613281 373.160156 C 27.003906 373.394531 26.496094 373.769531 26.089844 374.285156 C 24.757812 375.894531 23.898438 377.730469 23.523438 379.792969 C 23.464844 380.214844 23.433594 380.640625 23.421875 381.066406 C 24.21875 380.691406 24.957031 380.222656 25.636719 379.667969 C 26.320312 379.109375 26.925781 378.476562 27.453125 377.773438 C 27.984375 377.070312 28.421875 376.308594 28.765625 375.5 C 29.109375 374.6875 29.355469 373.847656 29.496094 372.976562 Z M 29.496094 372.976562 "/><path style=" stroke:none;fill-rule:nonzero;fill:#849c84;fill-opacity:1;" d="M 39.976562 348.027344 C 36.210938 349.328125 32.503906 350.460938 28.605469 348.84375 C 27.613281 348.394531 26.6875 347.832031 25.832031 347.15625 C 25.652344 346.996094 25.523438 346.800781 25.4375 346.574219 C 25.351562 346.351562 25.320312 346.117188 25.34375 345.878906 C 25.371094 345.636719 25.445312 345.417969 25.574219 345.210938 C 25.707031 345.007812 25.875 344.847656 26.082031 344.722656 C 27.058594 344.117188 28.113281 343.695312 29.242188 343.464844 C 31.355469 343.160156 33.480469 342.96875 35.613281 342.894531 C 37.640625 342.792969 39.359375 343.800781 41.050781 344.734375 C 41.84375 345.175781 41.898438 345.691406 41.351562 346.476562 C 40.925781 347.023438 40.464844 347.539062 39.976562 348.027344 Z M 36.230469 346.191406 C 34.460938 345.210938 31.289062 345.347656 29.980469 346.480469 C 31.007812 346.78125 32.058594 346.90625 33.128906 346.859375 C 34.199219 346.808594 35.234375 346.585938 36.230469 346.191406 Z M 36.230469 346.191406 "/><path style=" stroke:none;fill-rule:nonzero;fill:#849c84;fill-opacity:1;" d="M 38.300781 335.953125 C 38 336.132812 37.753906 336.296875 37.492188 336.441406 C 37.148438 336.664062 36.769531 336.777344 36.363281 336.785156 C 35.953125 336.796875 35.570312 336.699219 35.21875 336.496094 C 34.863281 336.296875 34.585938 336.015625 34.382812 335.65625 C 34.183594 335.300781 34.089844 334.917969 34.101562 334.507812 C 34.125 333.605469 34.351562 332.757812 34.773438 331.964844 C 35.457031 330.691406 36.21875 329.464844 37.058594 328.285156 C 37.308594 327.90625 37.648438 327.65625 38.082031 327.527344 C 40.425781 327.089844 42.785156 326.703125 45.144531 326.359375 C 45.550781 326.316406 45.933594 326.386719 46.289062 326.578125 C 46.648438 326.769531 46.925781 327.046875 47.117188 327.40625 C 47.207031 327.777344 47.183594 328.144531 47.039062 328.5 C 46.894531 328.855469 46.65625 329.132812 46.332031 329.335938 C 43.644531 331.550781 40.957031 333.765625 38.300781 335.953125 Z M 40.335938 330.292969 C 38.941406 330.222656 38.910156 330.25 38.738281 331.464844 Z M 40.335938 330.292969 "/><path style=" stroke:none;fill-rule:nonzero;fill:#849c84;fill-opacity:1;" d="M 45.917969 354.613281 C 45.796875 354.308594 45.675781 354.160156 45.695312 354.035156 C 45.914062 352.796875 44.992188 351.863281 44.832031 350.761719 C 44.664062 349.425781 44.609375 348.089844 44.667969 346.746094 C 44.699219 345.742188 44.824219 344.753906 45.050781 343.78125 C 45.214844 343.046875 45.488281 342.359375 45.867188 341.710938 C 46.007812 341.492188 46.183594 341.308594 46.394531 341.15625 C 46.605469 341.003906 46.835938 340.894531 47.085938 340.832031 C 47.339844 340.769531 47.59375 340.753906 47.851562 340.785156 C 48.109375 340.820312 48.351562 340.902344 48.578125 341.027344 C 50.234375 341.660156 50.472656 343.140625 50.785156 344.515625 C 51.105469 346.152344 51.132812 347.792969 50.859375 349.4375 C 50.585938 351.082031 50.03125 352.628906 49.195312 354.070312 C 48.578125 355.261719 47.890625 355.5625 46.910156 355.222656 C 46.554688 355.0625 46.226562 354.859375 45.917969 354.613281 Z M 45.917969 354.613281 "/><path style=" stroke:none;fill-rule:nonzero;fill:#849c84;fill-opacity:1;" d="M 38.585938 355.175781 C 38.949219 355.167969 39.304688 355.21875 39.648438 355.324219 C 40.035156 355.476562 40.320312 355.738281 40.507812 356.109375 C 41.300781 358.363281 42.722656 360.421875 42.945312 362.832031 C 43.128906 364.90625 42.667969 366.828125 41.5625 368.59375 C 40.707031 369.980469 39.492188 369.964844 38.425781 368.707031 C 37.832031 368.097656 37.277344 367.457031 36.757812 366.78125 C 36.210938 366.117188 35.859375 365.359375 35.703125 364.511719 C 35.605469 361.652344 35.742188 358.789062 37.492188 356.316406 C 37.671875 356.074219 37.863281 355.84375 38.070312 355.628906 C 38.167969 355.515625 38.292969 355.429688 38.585938 355.175781 Z M 39.289062 360.050781 C 38.171875 362.195312 38.253906 363.847656 39.460938 365.015625 C 40 363.339844 39.945312 361.6875 39.292969 360.050781 Z M 39.289062 360.050781 "/><path style=" stroke:none;fill-rule:nonzero;fill:#849c84;fill-opacity:1;" d="M 24.605469 311.523438 C 23.179688 309.246094 23.355469 307.03125 23.511719 304.832031 C 23.683594 303.84375 23.785156 302.851562 23.8125 301.847656 C 23.804688 301.464844 23.902344 301.105469 24.101562 300.777344 C 24.300781 300.445312 24.570312 300.195312 24.914062 300.023438 C 25.257812 299.847656 25.617188 299.777344 26 299.816406 C 26.382812 299.851562 26.726562 299.984375 27.035156 300.21875 C 27.78125 300.738281 28.398438 301.386719 28.878906 302.160156 C 29.359375 302.9375 29.667969 303.773438 29.800781 304.679688 C 30.148438 307.210938 29.859375 309.664062 28.929688 312.042969 C 28.289062 313.820312 26.914062 314.148438 25.632812 312.796875 C 25.1875 312.328125 24.816406 311.789062 24.605469 311.523438 Z M 26.710938 306.597656 C 26.605469 306.574219 26.550781 306.542969 26.519531 306.558594 C 26.472656 306.578125 26.445312 306.617188 26.4375 306.667969 C 26.457031 307.113281 26.480469 307.558594 26.507812 308.003906 L 26.761719 307.976562 C 26.746094 307.511719 26.730469 307.046875 26.714844 306.597656 Z M 26.710938 306.597656 "/><path style=" stroke:none;fill-rule:nonzero;fill:#849c84;fill-opacity:1;" d="M 53.636719 373.507812 C 52.648438 374.632812 51.488281 375.527344 50.148438 376.191406 C 48.164062 377.003906 46.191406 377.84375 44.183594 378.585938 C 43.386719 378.886719 42.566406 379.039062 41.714844 379.035156 C 41.0625 379.011719 40.507812 378.769531 40.046875 378.308594 C 39.847656 378.03125 39.761719 377.722656 39.78125 377.382812 C 39.804688 377.042969 39.929688 376.746094 40.160156 376.496094 C 40.628906 375.851562 41.078125 375.1875 41.527344 374.523438 C 41.859375 373.953125 42.304688 373.492188 42.867188 373.140625 C 43.429688 372.792969 44.039062 372.59375 44.699219 372.546875 C 45.09375 372.488281 45.476562 372.371094 45.835938 372.195312 C 47.46875 371.570312 49.15625 371.242188 50.902344 371.214844 C 52.808594 371.167969 53.109375 371.464844 53.636719 373.507812 Z M 46.355469 374.523438 C 44.484375 374.21875 44.191406 374.390625 43.78125 375.855469 C 44.777344 375.824219 45.316406 375.0625 46.355469 374.523438 Z M 46.355469 374.523438 "/><path style=" stroke:none;fill-rule:nonzero;fill:#849c84;fill-opacity:1;" d="M 10.097656 367.25 C 10.015625 367.308594 9.9375 367.371094 9.851562 367.425781 C 7.996094 368.59375 7.050781 368.488281 5.480469 367.003906 C 5.359375 366.917969 5.261719 366.808594 5.179688 366.679688 C 5.101562 366.554688 5.046875 366.414062 5.019531 366.269531 C 4.996094 366.121094 4.996094 365.972656 5.027344 365.824219 C 5.054688 365.675781 5.113281 365.539062 5.195312 365.414062 C 5.464844 364.886719 5.65625 364.332031 5.773438 363.75 C 5.890625 363.25 6.089844 362.789062 6.371094 362.359375 C 6.648438 361.929688 6.992188 361.5625 7.398438 361.253906 C 7.808594 360.945312 8.257812 360.714844 8.742188 360.5625 C 9.230469 360.410156 9.730469 360.347656 10.242188 360.371094 C 11.570312 360.515625 12.898438 360.714844 14.210938 360.984375 C 14.644531 361.121094 15.007812 361.363281 15.300781 361.710938 C 15.90625 362.335938 15.878906 362.828125 15.214844 363.359375 C 13.542969 364.699219 11.847656 366.007812 10.15625 367.328125 Z M 10.371094 363.300781 L 10.136719 363.023438 C 9.546875 363.066406 9.324219 363.429688 9.238281 364.296875 Z M 10.371094 363.300781 "/><path style=" stroke:none;fill-rule:nonzero;fill:#849c84;fill-opacity:1;" d="M 49.550781 321.640625 C 48.863281 321.945312 48.195312 322.28125 47.492188 322.53125 C 47.246094 322.648438 46.992188 322.695312 46.722656 322.667969 C 46.457031 322.644531 46.214844 322.550781 45.996094 322.390625 C 45.78125 322.230469 45.621094 322.027344 45.515625 321.777344 C 45.410156 321.53125 45.378906 321.273438 45.414062 321.003906 C 45.5625 319.65625 45.914062 318.363281 46.460938 317.125 C 47.339844 315.359375 49.121094 314.796875 50.964844 314.609375 C 51.8125 314.589844 52.65625 314.621094 53.503906 314.699219 C 53.8125 314.703125 54.089844 314.796875 54.339844 314.980469 C 54.589844 315.164062 54.761719 315.40625 54.859375 315.699219 C 55.105469 316.253906 54.824219 316.648438 54.445312 317.023438 C 52.851562 318.59375 51.257812 320.171875 49.671875 321.753906 Z M 50.828125 317.304688 C 49.050781 317.144531 48.742188 317.476562 48.871094 319.179688 Z M 50.828125 317.304688 "/><path style=" stroke:none;fill-rule:nonzero;fill:#849c84;fill-opacity:1;" d="M 20.449219 319.523438 C 19.882812 319.652344 19.3125 319.742188 18.730469 319.789062 C 16.625 319.726562 14.609375 319.261719 12.683594 318.394531 C 11.097656 317.820312 10.902344 316.3125 12.210938 315.238281 C 12.828125 314.734375 13.503906 314.316406 14.234375 313.992188 C 14.761719 313.8125 15.304688 313.722656 15.863281 313.71875 C 16.421875 313.714844 16.96875 313.800781 17.5 313.972656 C 18.027344 314.144531 18.519531 314.398438 18.96875 314.730469 C 19.421875 315.058594 19.808594 315.453125 20.132812 315.910156 C 20.371094 316.273438 20.65625 316.597656 20.992188 316.875 C 22.023438 317.761719 21.945312 318.664062 20.449219 319.523438 Z M 15.257812 316.328125 C 15.933594 317.210938 16.074219 317.25 17.3125 316.976562 Z M 15.257812 316.328125 "/><g clip-rule="nonzero" clip-path="url(#267c58d996)"><path style=" stroke:none;fill-rule:nonzero;fill:#849c84;fill-opacity:1;" d="M 36.351562 301.945312 C 36.023438 301.320312 35.792969 300.769531 35.472656 300.289062 C 35.199219 299.882812 35.011719 299.441406 34.910156 298.960938 C 34.808594 298.480469 34.804688 297.996094 34.890625 297.515625 C 34.980469 297.03125 35.15625 296.582031 35.417969 296.167969 C 35.683594 295.757812 36.015625 295.40625 36.414062 295.125 C 36.875 294.816406 37.363281 294.566406 37.878906 294.375 C 38.601562 294.105469 39.269531 293.910156 39.261719 292.898438 C 39.261719 292.394531 39.796875 292.234375 40.289062 292.242188 C 40.519531 292.246094 40.738281 292.289062 40.953125 292.367188 C 41.164062 292.449219 41.355469 292.5625 41.53125 292.714844 C 41.703125 292.863281 41.84375 293.035156 41.957031 293.234375 C 42.066406 293.4375 42.140625 293.648438 42.179688 293.875 C 42.292969 294.523438 42.265625 295.164062 42.09375 295.800781 C 41.449219 298.035156 40.230469 299.890625 38.4375 301.367188 C 38.167969 301.644531 37.84375 301.832031 37.472656 301.9375 C 37.097656 302.039062 36.726562 302.042969 36.351562 301.945312 Z M 37.574219 298.488281 L 37.964844 298.691406 L 39.03125 296.769531 C 38.210938 297.128906 37.527344 297.566406 37.574219 298.488281 Z M 37.574219 298.488281 "/></g><path style=" stroke:none;fill-rule:nonzero;fill:#849c84;fill-opacity:1;" d="M 58.96875 336.410156 C 57.570312 336.785156 55.960938 337.296875 54.316406 337.617188 C 53.566406 337.722656 52.835938 337.644531 52.125 337.386719 C 51.84375 337.332031 51.601562 337.203125 51.398438 337 C 51.199219 336.796875 51.070312 336.554688 51.015625 336.273438 C 50.964844 335.992188 50.992188 335.71875 51.105469 335.457031 C 51.21875 335.195312 51.394531 334.984375 51.636719 334.832031 C 52.402344 334.128906 53.183594 333.433594 54.007812 332.796875 C 54.515625 332.457031 55.058594 332.191406 55.644531 332.007812 C 56.226562 331.828125 56.824219 331.730469 57.433594 331.71875 C 58.046875 331.707031 58.644531 331.785156 59.234375 331.945312 C 59.824219 332.109375 60.378906 332.351562 60.898438 332.675781 C 61.050781 332.765625 61.171875 332.890625 61.265625 333.039062 C 61.359375 333.191406 61.414062 333.355469 61.429688 333.535156 C 61.441406 333.710938 61.417969 333.882812 61.351562 334.046875 C 61.285156 334.210938 61.183594 334.351562 61.050781 334.46875 C 60.492188 335.097656 59.820312 335.628906 58.96875 336.410156 Z M 56.804688 334.46875 L 56.636719 333.992188 L 55.296875 334.652344 L 55.425781 334.964844 Z M 56.804688 334.46875 "/><path style=" stroke:none;fill-rule:nonzero;fill:#849c84;fill-opacity:1;" d="M 12.894531 323.921875 C 13.738281 323.746094 14.792969 323.496094 15.859375 323.328125 C 15.996094 323.292969 16.136719 323.292969 16.273438 323.328125 C 16.414062 323.363281 16.535156 323.433594 16.636719 323.53125 C 16.742188 323.632812 16.8125 323.75 16.855469 323.886719 C 16.898438 324.027344 16.90625 324.164062 16.875 324.304688 C 16.839844 325 16.710938 325.679688 16.496094 326.339844 C 16 327.753906 15.363281 329.121094 14.890625 330.539062 C 14.777344 330.878906 14.585938 331.164062 14.308594 331.390625 C 14.035156 331.621094 13.71875 331.757812 13.367188 331.800781 C 13.011719 331.882812 12.667969 331.851562 12.335938 331.707031 C 12.003906 331.5625 11.746094 331.332031 11.5625 331.019531 C 11.289062 330.550781 11.089844 330.058594 10.957031 329.53125 C 10.828125 329.007812 10.773438 328.476562 10.796875 327.9375 C 10.820312 327.398438 10.917969 326.871094 11.089844 326.359375 C 11.261719 325.851562 11.503906 325.375 11.8125 324.929688 C 12.15625 324.574219 12.515625 324.238281 12.894531 323.921875 Z M 12.894531 323.921875 "/><path style=" stroke:none;fill-rule:nonzero;fill:#849c84;fill-opacity:1;" d="M 39.792969 309.429688 C 39.917969 310.230469 39.929688 311.035156 39.828125 311.835938 C 39.230469 313.898438 38.53125 315.933594 37.742188 317.929688 C 37.632812 318.191406 37.464844 318.40625 37.238281 318.574219 C 37.007812 318.742188 36.75 318.835938 36.46875 318.855469 C 36.183594 318.878906 35.917969 318.824219 35.667969 318.691406 C 35.414062 318.5625 35.214844 318.375 35.070312 318.128906 C 34.773438 317.777344 34.582031 317.378906 34.492188 316.929688 C 34.402344 316.480469 34.425781 316.035156 34.5625 315.597656 C 35.226562 313.769531 35.785156 311.898438 36.414062 310.058594 C 36.828125 308.847656 37.183594 308.597656 38.40625 308.769531 C 38.898438 308.925781 39.359375 309.144531 39.792969 309.429688 Z M 39.792969 309.429688 "/><path style=" stroke:none;fill-rule:nonzero;fill:#849c84;fill-opacity:1;" d="M 11.277344 337.253906 C 12.152344 337.109375 13.035156 337.03125 13.921875 337.019531 C 15.304688 337.175781 16.519531 337.714844 17.570312 338.632812 C 17.847656 338.78125 18.046875 339 18.171875 339.289062 C 18.296875 339.578125 18.316406 339.875 18.230469 340.179688 C 17.996094 340.832031 17.75 341.488281 16.90625 341.648438 C 14.910156 342.023438 12.933594 341.949219 10.976562 341.421875 C 10.855469 341.40625 10.738281 341.375 10.625 341.328125 C 10.515625 341.28125 10.410156 341.222656 10.3125 341.152344 C 10.214844 341.078125 10.125 340.996094 10.050781 340.898438 C 9.972656 340.804688 9.910156 340.703125 9.859375 340.59375 C 9.808594 340.480469 9.769531 340.367188 9.75 340.246094 C 9.726562 340.128906 9.71875 340.007812 9.726562 339.886719 C 9.734375 339.761719 9.757812 339.644531 9.796875 339.527344 C 9.832031 339.414062 9.886719 339.304688 9.949219 339.199219 C 10.335938 338.511719 10.777344 337.863281 11.277344 337.253906 Z M 11.277344 337.253906 "/></g></svg>