<svg xmlns="http://www.w3.org/2000/svg" fill="none" viewBox="0 0 43 38" height="38" width="43">
<g clip-path="url(#clip0_53_12207)">
<path fill="white" d="M21.2809 22.5818C23.3626 22.5818 25.0501 20.8943 25.0501 18.8127C25.0501 16.731 23.3626 15.0435 21.2809 15.0435C19.1992 15.0435 17.5117 16.731 17.5117 18.8127C17.5117 20.8943 19.1992 22.5818 21.2809 22.5818Z"></path>
<path stroke-width="1.83863" stroke="white" d="M21.2796 26.5343C32.4496 26.5343 41.5046 23.077 41.5046 18.8121C41.5046 14.5472 32.4496 11.0898 21.2796 11.0898C10.1097 11.0898 1.05469 14.5472 1.05469 18.8121C1.05469 23.077 10.1097 26.5343 21.2796 26.5343Z"></path>
<path stroke-width="1.83863" stroke="white" d="M14.5926 22.6736C20.1776 32.347 27.6993 38.4602 31.3927 36.3278C35.0862 34.1953 33.5529 24.6248 27.9679 14.9513C22.383 5.27791 14.8613 -0.835281 11.1678 1.29716C7.47431 3.4296 9.00765 13.0002 14.5926 22.6736Z"></path>
<path stroke-width="1.83863" stroke="white" d="M14.5903 14.9508C9.00536 24.6242 7.47202 34.1948 11.1655 36.3272C14.859 38.4597 22.3807 32.3465 27.9657 22.673C33.5506 12.9996 35.084 3.42903 31.3905 1.29659C27.697 -0.83585 20.1753 5.27734 14.5903 14.9508Z"></path>
</g>
<defs>
<clipPath id="clip0_53_12207">
<rect transform="translate(0.136719)" fill="white" height="37.6248" width="42.2885"></rect>
</clipPath>
</defs>
</svg>
